<?xml version="1.0" standalone="no"?>
<!DOCTYPE svg PUBLIC "-//W3C//DTD SVG 1.1//EN" "http://www.w3.org/Graphics/SVG/1.1/DTD/svg11.dtd" >
<svg xmlns="http://www.w3.org/2000/svg">
<metadata>
This is a custom SVG webfont generated by Font Squirrel.
Copyright   : Copyright c 2006 by studio kmzero All rights reserved
Designer    : Francesco Canovaro
Foundry     : studio kmzero
Foundry URL : wwwzerofontscom
</metadata>
<defs>
<font id="DuepuntozeroRegular" horiz-adv-x="858" >
<font-face units-per-em="2048" ascent="1638" descent="-410" />
<missing-glyph horiz-adv-x="542" />
<glyph unicode=" "  horiz-adv-x="542" />
<glyph unicode="&#x09;" horiz-adv-x="542" />
<glyph unicode="&#xa0;" horiz-adv-x="542" />
<glyph unicode="!" horiz-adv-x="301" d="M70 78v59q0 33 23.5 55.5t53.5 22.5q33 0 55.5 -22.5t22.5 -55.5v-59q0 -33 -23.5 -55.5t-54.5 -22.5q-33 0 -55 22.5t-22 55.5zM70 397v885q0 33 23.5 55.5t53.5 22.5q33 0 55.5 -22.5t22.5 -55.5v-885q0 -33 -23.5 -55.5t-54.5 -22.5q-33 0 -55 22.5t-22 55.5z" />
<glyph unicode="&#x22;" horiz-adv-x="522" d="M70 1137v161q0 33 22.5 55.5t54.5 22.5q31 0 54.5 -22.5t23.5 -55.5v-161q0 -33 -22.5 -55.5t-55.5 -22.5q-31 0 -54 22.5t-23 55.5zM295 1137v161q0 33 22.5 55.5t55.5 22.5q31 0 54.5 -22.5t23.5 -55.5v-161q0 -33 -22.5 -55.5t-55.5 -22.5q-31 0 -54.5 22.5 t-23.5 55.5z" />
<glyph unicode="#" horiz-adv-x="909" d="M45 477q0 31 22.5 54.5t55.5 23.5h47v254h-47q-33 0 -55.5 22.5t-22.5 55.5q0 31 22.5 54.5t55.5 23.5h47v309q0 33 22.5 55.5t55.5 22.5q31 0 54.5 -22.5t23.5 -55.5v-309h254v309q0 33 22.5 55.5t54.5 22.5q31 0 54.5 -22.5t23.5 -55.5v-309h53q33 0 55.5 -22.5 t22.5 -55.5q0 -31 -22.5 -54.5t-55.5 -23.5h-53v-254h53q33 0 55.5 -22.5t22.5 -55.5q0 -31 -22.5 -54.5t-55.5 -23.5h-53v-321q0 -33 -22.5 -55.5t-55.5 -22.5q-31 0 -54 22.5t-23 55.5v321h-254v-321q0 -33 -22.5 -55.5t-55.5 -22.5q-31 0 -54.5 22.5t-23.5 55.5v321h-47 q-33 0 -55.5 22.5t-22.5 55.5zM326 555h254v254h-254v-254z" />
<glyph unicode="$" horiz-adv-x="1038" d="M31 338q0 33 20.5 55.5t50.5 22.5q33 0 54.5 -22.5t36.5 -55.5q29 -70 93 -119t150 -65v499q-80 8 -145.5 33t-113.5 68t-74.5 105.5t-26.5 141.5q0 152 97 244t263 111v94q0 33 22.5 55.5t55.5 22.5q31 0 54.5 -22.5t23.5 -55.5v-98q33 -6 75 -17.5t85 -34t82.5 -57.5 t70.5 -86q4 -10 9.5 -22.5t5.5 -26.5q0 -25 -20.5 -50.5t-55.5 -25.5q-39 0 -60 27q-41 47 -84 84t-108 53v-395q88 -10 165 -40t133 -80t88 -121t32 -161q0 -92 -32 -162.5t-88 -122t-133 -81t-165 -37.5v-109q0 -33 -22.5 -55t-55.5 -22q-31 0 -54.5 22.5t-23.5 54.5v111 q-41 6 -94 21.5t-108.5 49t-106.5 88t-88 138.5q-8 18 -8 43zM231 1001q0 -92 57.5 -136t147.5 -56v389q-113 -16 -159 -72.5t-46 -124.5zM592 152q53 8 100 26.5t83 48t57.5 72.5t21.5 100q0 55 -20.5 98.5t-56.5 73t-83 48t-102 24.5v-491z" />
<glyph unicode="&#x26;" horiz-adv-x="1128" d="M43 477q0 100 39 188.5t105.5 155t154.5 104.5t188 38v-156q-68 0 -128 -26.5t-105 -70.5t-71.5 -104.5t-26.5 -128.5t25.5 -128t70.5 -104t105.5 -71t129.5 -27q68 0 126.5 27t99.5 71t64.5 104.5t23.5 127.5h155q0 -100 -35.5 -188t-98 -154.5t-148.5 -104.5t-187 -38 q-100 0 -189 38t-154.5 104.5t-104.5 154.5t-39 188zM256 1079q0 57 21.5 106.5t59.5 86.5t88 58.5t107 21.5v-156q-49 0 -84.5 -34t-35.5 -83t34.5 -82.5t83.5 -33.5l2 -156h-2q-57 0 -107 21.5t-87 58.5t-58.5 86t-21.5 106zM530 807v156h486q33 0 55.5 -22.5t22.5 -55.5 q0 -31 -22.5 -54.5t-55.5 -23.5h-486zM532 1196v156h95q33 0 55.5 -22.5t22.5 -55.5q0 -31 -23 -54.5t-55 -23.5h-95zM844 477v504q0 33 22.5 55.5t55.5 22.5q31 0 54 -22.5t23 -55.5v-504h-155z" />
<glyph unicode="'" horiz-adv-x="331" d="M68 1137v161q0 29 23.5 53.5t51.5 24.5h82q33 0 55.5 -23.5t22.5 -54.5q0 -33 -22.5 -55t-55.5 -22h-2v-84q0 -33 -23.5 -55.5t-54.5 -22.5q-33 0 -55 22.5t-22 55.5z" />
<glyph unicode="(" horiz-adv-x="536" d="M61 -74v1135q0 76 30 143.5t80 117.5t117.5 79t143.5 29q33 0 55.5 -23t22.5 -55q0 -33 -22.5 -55.5t-55.5 -22.5q-43 0 -82 -16.5t-67.5 -44t-46 -64.5t-19.5 -80v-1151q2 -43 19.5 -80t46 -64.5t67.5 -44t82 -16.5q33 0 55.5 -22.5t22.5 -55.5t-22.5 -55t-55.5 -22 q-76 0 -143.5 28.5t-117.5 78.5t-80 117.5t-30 143.5z" />
<glyph unicode=")" horiz-adv-x="538" d="M27 -365q0 33 22.5 55.5t54.5 22.5q43 0 81 16.5t68 44t47 64.5t19 80v1151q-2 43 -19 80t-47 64.5t-68 44t-81 16.5q-33 0 -55 22.5t-22 55.5t22.5 55.5t54.5 22.5q76 0 143.5 -29t118 -79t80 -117.5t29.5 -143.5v-1135q0 -76 -29.5 -143.5t-80 -117.5t-118 -78.5 t-143.5 -28.5q-33 0 -55 22t-22 55z" />
<glyph unicode="*" horiz-adv-x="792" d="M37 578q0 31 22.5 54t55.5 23h145l-72 127q-10 14 -10 37q0 29 20.5 54.5t55.5 25.5q20 -2 39.5 -11t30.5 -28l73 -129l74 127q23 39 68 39q35 0 55 -23.5t20 -56.5q0 -20 -8 -37l-74 -125h146q33 0 55.5 -22.5t22.5 -54.5q0 -31 -22.5 -54.5t-55.5 -23.5h-148l74 -129 q10 -20 10 -39q0 -29 -20.5 -53.5t-56.5 -24.5q-45 0 -68 39l-74 127l-73 -127q-23 -39 -68 -39q-35 0 -56.5 23.5t-21.5 56.5q0 16 10 37l76 129h-147q-33 0 -55.5 22.5t-22.5 55.5z" />
<glyph unicode="+" horiz-adv-x="747" d="M14 578q0 31 22.5 54t55.5 23h203v203q0 33 22.5 55.5t55.5 22.5q31 0 54.5 -22.5t23.5 -55.5v-203h204q33 0 55.5 -22.5t22.5 -54.5q0 -31 -22.5 -54.5t-55.5 -23.5h-204v-205q0 -33 -22.5 -55.5t-55.5 -22.5q-31 0 -54.5 22.5t-23.5 55.5v205h-203q-33 0 -55.5 22.5 t-22.5 55.5z" />
<glyph unicode="," horiz-adv-x="290" d="M66 78q0 33 22.5 55.5t54.5 22.5q31 0 54.5 -22.5t23.5 -55.5v-168q0 -33 -22.5 -55.5t-55.5 -22.5q-31 0 -54 22.5t-23 55.5v168z" />
<glyph unicode="-" d="M70 578q0 31 22.5 54t54.5 23h564q33 0 55 -22.5t22 -54.5q0 -31 -22.5 -54.5t-54.5 -23.5h-564q-33 0 -55 22.5t-22 55.5z" />
<glyph unicode="." horiz-adv-x="262" d="M53 78q0 33 22.5 55.5t55.5 22.5q31 0 54.5 -22.5t23.5 -55.5t-22.5 -55.5t-55.5 -22.5q-31 0 -54.5 22.5t-23.5 55.5z" />
<glyph unicode="/" horiz-adv-x="1083" d="M6 78q0 29 19 51l915 1198q10 14 25.5 20.5t31.5 6.5q35 0 57.5 -23.5t22.5 -54.5q0 -12 -3 -25.5t-13 -23.5l-916 -1198q-23 -29 -57 -29q-35 0 -58.5 24.5t-23.5 53.5z" />
<glyph unicode="0" horiz-adv-x="946" d="M61 365v624q0 84 33 158t88.5 129t130 87t158.5 32q86 0 161 -32t130 -87t88 -129t33 -158v-624q0 -84 -33 -158t-88 -129t-130 -88t-161 -33q-84 0 -158.5 33t-130 88t-88.5 129t-33 158zM217 365q0 -53 20.5 -98.5t54.5 -80t80 -54t99 -19.5t100 19.5t82 54t54.5 79.5 t19.5 99v624q0 51 -20.5 98.5t-55.5 81t-81 54t-99 20.5t-99 -20.5t-81 -54t-54.5 -81t-19.5 -98.5v-624z" />
<glyph unicode="1" horiz-adv-x="444" d="M6 1151q0 20 9.5 39.5t29.5 30.5l201 116q20 14 45 15q31 0 54.5 -22.5t23.5 -55.5v-1196q0 -33 -22.5 -55.5t-55.5 -22.5q-31 0 -54.5 22.5t-23.5 55.5v1059l-88 -52q-23 -12 -41 -12q-29 0 -53.5 21.5t-24.5 56.5z" />
<glyph unicode="2" horiz-adv-x="940" d="M55 78q0 29 19 51l590 700q25 25 41 71t16 87v2q0 51 -19.5 97.5t-54.5 81t-82 54t-100 19.5q-51 0 -97 -19.5t-81 -53t-55.5 -77.5t-20.5 -96q0 -33 -22.5 -55t-55.5 -22t-55.5 22.5t-22.5 54.5q0 82 33 155t89 128t131 87t157 32q86 0 160.5 -33t130 -88t88.5 -129 t33 -158v-2q0 -74 -25 -139.5t-70 -118.5h2l-477 -573h512q33 0 55.5 -22.5t22.5 -55.5t-22.5 -55.5t-55.5 -22.5h-686q-33 0 -55.5 22.5t-22.5 55.5z" />
<glyph unicode="3" horiz-adv-x="913" d="M43 365q0 33 22.5 55t55.5 22t55.5 -22.5t22.5 -54.5q0 -53 20.5 -98.5t54 -80t79.5 -54t100 -19.5q53 0 100 19.5t82 54t54.5 79.5t19.5 99v2q0 51 -19.5 102t-53.5 92t-80 66.5t-97 27.5h-6q-31 0 -53.5 22.5t-22.5 53.5t22.5 53.5t53.5 22.5h8q39 2 73.5 23.5 t61.5 54.5t41 72.5t14 80.5t-15 77t-43 63.5t-63.5 43t-76.5 15.5t-78 -15.5t-63.5 -43t-42 -63.5t-15.5 -75q0 -33 -22.5 -55t-55.5 -22t-55.5 22.5t-22.5 54.5v4q0 72 28 135.5t76 111.5t112.5 76t138.5 28t138 -28t113.5 -76t77 -111.5t27.5 -135.5v-2q0 -41 -9 -84 t-25.5 -83.5t-40 -76.5t-52.5 -61q41 -27 75 -68.5t57.5 -91t36.5 -104.5t13 -106v-2q0 -84 -32.5 -158t-88 -129t-130 -88t-160.5 -33q-84 0 -159 33t-130 88t-88 129t-33 158z" />
<glyph unicode="4" horiz-adv-x="874" d="M6 283q0 20 12 43l566 989q10 16 28.5 25.5t36.5 9.5q33 0 56.5 -23.5t23.5 -52.5v-914h21q33 0 55 -22.5t22 -54.5q0 -33 -22.5 -55.5t-54.5 -22.5h-21v-127q0 -33 -22.5 -55.5t-55.5 -22.5t-55.5 22.5t-22.5 55.5v127h-489q-31 0 -54.5 24.5t-23.5 53.5zM219 360h354 v619z" />
<glyph unicode="5" horiz-adv-x="921" d="M53 365q0 33 22.5 55t55.5 22t55.5 -22.5t22.5 -54.5v-7q0 -51 20.5 -96t55 -77.5t81 -52t97.5 -19.5q53 0 100 19.5t82 54t54.5 79.5t19.5 99v184q0 51 -19.5 97t-54.5 81t-82 54.5t-100 19.5q-63 0 -116.5 -28t-90.5 -75q-12 -14 -29.5 -28.5t-46.5 -14.5 q-33 0 -52 21.5t-19 54.5v543q0 33 22.5 55.5t54.5 22.5h555q33 0 55.5 -22.5t22.5 -55.5t-22.5 -55.5t-55.5 -22.5h-477v-293q45 25 95.5 39t103.5 14q86 0 160.5 -32.5t130 -88t88 -129t32.5 -157.5v-184q0 -84 -32.5 -158t-88 -129t-130 -88t-160.5 -33q-84 0 -159 33 t-130 88t-88 129t-33 158z" />
<glyph unicode="6" horiz-adv-x="933" d="M61 365v587q0 84 33 158t88.5 129t130 88t160.5 33q41 0 96.5 -13.5t104.5 -38t83 -57t34 -71.5q0 -33 -23 -55.5t-55 -22.5q-43 0 -66 33q-35 33 -80 51t-94 18q-53 0 -100 -19.5t-82 -54t-54.5 -80.5t-19.5 -98v-88q53 41 117.5 64.5t136.5 23.5q86 0 161 -31.5 t130 -87t88 -129t33 -157.5v-182q0 -84 -33 -158t-88 -129t-130 -88t-161 -33q-84 0 -158.5 33t-130 88t-88.5 129t-33 158zM217 365q0 -53 20.5 -98.5t54.5 -80t80 -54t99 -19.5t100 19.5t82 54t54.5 79.5t19.5 99v182q0 51 -20.5 98t-55.5 81t-81 54.5t-99 20.5t-98 -19.5 t-79 -52.5t-54.5 -78t-22.5 -94v-192z" />
<glyph unicode="7" horiz-adv-x="897" d="M49 76q0 20 12 43l617 1077h-551q-33 0 -55.5 22.5t-22.5 55.5t22.5 55.5t55.5 22.5h6h670q33 0 60.5 -21.5t27.5 -56.5q0 -23 -12 -43l-684 -1196q-10 -18 -29 -26.5t-37 -10.5q-33 0 -56.5 23.5t-23.5 54.5z" />
<glyph unicode="8" horiz-adv-x="919" d="M49 399v2q0 104 49 193.5t133 142.5q-59 49 -93 120t-34 151v2q0 72 28 135t76 111.5t112.5 76t138.5 27.5t138.5 -27.5t113.5 -76t76.5 -112t27.5 -134.5v-2q0 -80 -33.5 -151t-93.5 -120q84 -53 133 -142t49 -194v-2q0 -84 -32.5 -157.5t-88 -129t-130 -88 t-160.5 -32.5q-84 0 -159 32.5t-130 88t-88 129t-33 157.5zM205 399q0 -53 20.5 -98t54 -80t80 -54.5t99.5 -19.5t100 19.5t82 54.5t54.5 80t19.5 98v2q0 51 -19.5 96.5t-53.5 79t-78 55t-95 23.5h-10q-53 0 -99.5 -20.5t-81 -54t-54 -80.5t-19.5 -99v-2zM260 1004 q0 -41 15.5 -77t43 -62.5t63.5 -42t77 -15.5q84 0 141 57.5t57 139.5q0 41 -15 76.5t-43 63t-63.5 43t-76.5 15.5t-78 -15.5t-63.5 -43t-42 -63t-15.5 -76.5z" />
<glyph unicode="9" horiz-adv-x="931" d="M49 805v147q0 84 33 158t88 129t130 88t161 33q84 0 158.5 -33t130 -88t88 -129t32.5 -158v-553q0 -84 -32.5 -157.5t-88 -129t-130 -88t-160.5 -32.5q-41 0 -96.5 13t-104.5 38t-83 57.5t-34 71.5q0 33 22.5 55.5t55.5 22.5q43 0 66 -33q35 -33 80 -51.5t94 -18.5 q53 0 100 19.5t82 54.5t54.5 80t19.5 98v88q-53 -41 -118 -64.5t-136 -23.5q-86 0 -161 32t-130 87t-88 129t-33 158zM205 805q0 -53 20.5 -99.5t55 -80t81 -54t99.5 -20.5q51 0 97 19.5t80 52t54.5 77.5t22.5 95v157q0 51 -20.5 97.5t-54.5 81t-81 54t-98 19.5 q-53 0 -100.5 -19.5t-82 -54t-54 -80.5t-19.5 -98v-147z" />
<glyph unicode=":" horiz-adv-x="249" d="M47 78q0 33 22.5 55.5t55.5 22.5q31 0 54.5 -22.5t23.5 -55.5t-22.5 -55.5t-55.5 -22.5q-31 0 -54.5 22.5t-23.5 55.5zM47 938q0 33 22.5 55.5t55.5 22.5q31 0 54.5 -22.5t23.5 -55.5t-22.5 -55.5t-55.5 -22.5q-31 0 -54.5 22.5t-23.5 55.5z" />
<glyph unicode=";" horiz-adv-x="253" d="M47 78q0 33 22.5 55.5t55.5 22.5q31 0 54.5 -22.5t23.5 -55.5v-168q0 -33 -22.5 -55.5t-55.5 -22.5q-31 0 -54.5 22.5t-23.5 55.5v168zM47 938q0 33 22.5 55.5t55.5 22.5q31 0 54.5 -22.5t23.5 -55.5t-22.5 -55.5t-55.5 -22.5q-31 0 -54.5 22.5t-23.5 55.5z" />
<glyph unicode="&#x3c;" horiz-adv-x="522" d="M12 498q0 29 19 53l286 375q10 14 25.5 20t32.5 6q35 0 57.5 -23.5t22.5 -54.5q0 -12 -3 -25t-14 -24l-250 -325l250 -324q16 -18 17 -51q0 -29 -22.5 -53.5t-57.5 -24.5t-58 29l-288 377q-17 22 -17 45z" />
<glyph unicode="=" d="M70 422q0 31 22.5 54.5t54.5 23.5h564q33 0 55 -22.5t22 -55.5q0 -31 -22.5 -54.5t-54.5 -23.5h-564q-33 0 -55 22.5t-22 55.5zM70 735q0 31 22.5 54.5t54.5 23.5h564q33 0 55 -22.5t22 -55.5q0 -31 -22.5 -54.5t-54.5 -23.5h-564q-33 0 -55 22.5t-22 55.5z" />
<glyph unicode="&#x3e;" horiz-adv-x="522" d="M68 125q0 29 18 51l250 326l-250 323q-18 20 -18 49q0 31 23.5 54.5t58.5 23.5q16 0 31.5 -6t25.5 -20l289 -377q16 -23 16 -47q0 -27 -18 -51l-287 -375q-23 -29 -57 -29q-35 0 -58.5 24.5t-23.5 53.5z" />
<glyph unicode="?" horiz-adv-x="997" d="M23 1024q0 16 6 33q27 68 72.5 123t104 95t128 62.5t145.5 22.5q100 0 190.5 -38t156 -104.5t104.5 -154.5t39 -189v-2q0 -86 -34 -171t-94.5 -152.5t-145.5 -109.5t-189 -42v-2q0 -33 -23.5 -55.5t-54.5 -22.5q-33 0 -55.5 22.5t-22.5 55.5v70q0 33 23.5 55.5t54.5 22.5 q6 0 12 -1t13 -1q80 0 145.5 28.5t113.5 75.5t74.5 106.5t26.5 120.5v2q0 68 -25.5 128.5t-70.5 104.5t-106.5 70.5t-131.5 26.5q-106 0 -188 -60.5t-121 -152.5q-10 -23 -29.5 -34t-42.5 -11q-35 0 -55 24.5t-20 53.5zM350 78v59q0 33 23.5 55.5t54.5 22.5q33 0 55.5 -22.5 t22.5 -55.5v-59q0 -33 -23.5 -55.5t-54.5 -22.5q-33 0 -55.5 22.5t-22.5 55.5z" />
<glyph unicode="@" horiz-adv-x="1079" d="M53 416v176q0 100 39 188t104.5 154.5t154.5 104.5t192 38q100 0 188 -38t154.5 -104.5t105.5 -154.5t39 -188v-176q0 -31 -11 -71t-36 -76t-64.5 -59.5t-97.5 -23.5h-280q-47 0 -89 18.5t-74 50.5t-50.5 75t-18.5 90v168q0 47 18.5 90t50.5 74.5t75 50t90 18.5t90 -18.5 t74.5 -50t50 -74.5t18.5 -90v-168q0 -20 -4 -40t-10 -38h59q35 0 44 26.5t9 47.5v176q0 68 -26.5 128t-71.5 104t-105.5 71t-127.5 27q-70 0 -131.5 -27t-106.5 -71t-70.5 -104.5t-25.5 -127.5v-176q0 -68 26.5 -128.5t71.5 -104.5t106.5 -70.5t129.5 -26.5h356 q-68 -72 -160 -114t-196 -42q-100 0 -189.5 38t-156 104.5t-105.5 155t-39 188.5zM465 420q0 -33 21.5 -55.5t54.5 -22.5h2q33 0 55.5 22.5t22.5 55.5v168q0 33 -23 55.5t-55 22.5q-33 0 -55.5 -22.5t-22.5 -55.5v-168z" />
<glyph unicode="A" horiz-adv-x="1247" d="M31 74q0 16 6 32l516 1207q20 47 72 47q14 0 30 -6q29 -12 41 -41l516 -1207q6 -16 7 -32q0 -27 -20.5 -51.5t-55.5 -24.5q-51 0 -72 47l-145 340h-602l-146 -340q-10 -23 -29.5 -35t-42.5 -12q-35 0 -55 24.5t-20 51.5zM389 541h469l-233 546z" />
<glyph unicode="B" horiz-adv-x="1091" d="M74 78v1196q0 33 22.5 55.5t55.5 22.5h409q57 0 107.5 -21.5t88.5 -58.5t59.5 -86t21.5 -107q0 -47 -15.5 -90t-42.5 -78q121 -59 196 -172.5t75 -257.5q0 -100 -39 -187t-104.5 -152.5t-154.5 -103.5t-190 -38h-411q-31 0 -54.5 22.5t-23.5 55.5zM229 156h334 q70 0 130.5 25.5t105.5 69.5t70.5 103.5t25.5 126.5q0 66 -25.5 124.5t-70.5 102.5t-105.5 70.5t-130.5 28.5h-334v-651zM229 963h334q49 0 84 33.5t35 82.5t-36 83t-85 34h-332v-233z" />
<glyph unicode="C" horiz-adv-x="1048" d="M57 442v469q0 100 39 188.5t104.5 155t154.5 104.5t192 38q74 0 142.5 -21.5t126.5 -61.5t103.5 -94.5t73.5 -119.5q6 -6 8.5 -17.5t2.5 -21.5q0 -29 -20.5 -53.5t-57.5 -24.5q-47 0 -70 45q-37 92 -121 152.5t-188 60.5q-70 0 -131.5 -26.5t-106.5 -70.5t-70.5 -104.5 t-25.5 -128.5v-469q0 -68 26.5 -128t71.5 -104t106.5 -70.5t129.5 -26.5q111 0 192.5 60t118.5 155q8 23 27.5 33t40.5 10q35 0 56.5 -24.5t21.5 -53.5q0 -16 -7 -31q-27 -68 -71.5 -123t-103 -96t-129 -63.5t-146.5 -22.5q-100 0 -189.5 38t-156 104.5t-105.5 154.5 t-39 188z" />
<glyph unicode="D" horiz-adv-x="1107" d="M74 78v1196q0 33 22.5 55.5t55.5 22.5h409q100 0 190.5 -38t156 -103.5t104.5 -152.5t39 -188v-389q0 -100 -39 -187t-104.5 -152.5t-154.5 -103.5t-190 -38h-411q-31 0 -54.5 22.5t-23.5 55.5zM229 156h334q70 0 130.5 25.5t105.5 69.5t70.5 103.5t25.5 126.5v389 q0 68 -25.5 127.5t-70.5 103.5t-106.5 69.5t-131.5 25.5h-332v-1040z" />
<glyph unicode="E" horiz-adv-x="1081" d="M74 78v1196q0 33 22.5 55.5t55.5 22.5h821q33 0 55.5 -22.5t22.5 -55.5q0 -31 -22.5 -54.5t-55.5 -23.5h-744v-463h242q33 0 55.5 -22.5t22.5 -55.5q0 -31 -22.5 -54t-55.5 -23h-242v-422h744q33 0 55.5 -22.5t22.5 -55.5q0 -31 -22.5 -54.5t-55.5 -23.5h-815h-6 q-31 0 -54.5 22.5t-23.5 55.5z" />
<glyph unicode="F" horiz-adv-x="1050" d="M74 78v1196q0 31 21.5 53.5t51.5 24.5h11h815q33 0 55.5 -22.5t22.5 -55.5q0 -31 -22.5 -54.5t-55.5 -23.5h-744v-463h242q33 0 55.5 -22.5t22.5 -55.5q0 -31 -22.5 -54t-55.5 -23h-242v-500q0 -33 -22.5 -55.5t-54.5 -22.5q-31 0 -54.5 22.5t-23.5 55.5z" />
<glyph unicode="G" horiz-adv-x="1085" d="M59 442v467q0 100 39 188.5t104.5 155t154.5 104.5t192 38q76 0 145.5 -22.5t128 -62.5t104.5 -95.5t72 -122.5q6 -16 7 -33q0 -29 -20.5 -53.5t-57.5 -24.5q-20 0 -40 11.5t-30 33.5q-39 92 -122 152.5t-187 60.5q-70 0 -131.5 -26.5t-106.5 -70.5t-70.5 -104.5 t-25.5 -128.5v-467q0 -68 26.5 -128t71.5 -104t106.5 -70.5t129.5 -26.5q70 0 130 26.5t105 70.5t71 104.5t26 127.5v101h-158q-33 0 -55.5 22.5t-22.5 55.5q0 31 22.5 54t55.5 23h235q33 0 55.5 -22.5t22.5 -54.5v-179q0 -100 -39 -188t-104.5 -154.5t-154.5 -104.5 t-189 -38t-189.5 38t-156 104.5t-105.5 154.5t-39 188z" />
<glyph unicode="H" horiz-adv-x="1126" d="M74 78v1196q0 33 23.5 55.5t54.5 22.5q33 0 55 -22.5t22 -55.5v-541h666v541q0 33 23.5 55.5t54.5 22.5q33 0 55.5 -22.5t22.5 -55.5v-1196q0 -33 -23.5 -55.5t-54.5 -22.5q-33 0 -55.5 22.5t-22.5 55.5v500h-666v-500q0 -33 -23.5 -55.5t-53.5 -22.5q-33 0 -55.5 22.5 t-22.5 55.5z" />
<glyph unicode="I" horiz-adv-x="309" d="M74 78v1196q0 33 22.5 55.5t55.5 22.5q31 0 54 -22.5t23 -55.5v-1196q0 -33 -22.5 -55.5t-54.5 -22.5q-31 0 -54.5 22.5t-23.5 55.5z" />
<glyph unicode="J" horiz-adv-x="520" d="M6 70q0 33 22.5 55t55.5 22q43 0 81 16.5t67.5 44.5t47 64.5t19.5 79.5v922q0 33 23.5 55.5t54.5 22.5q33 0 55.5 -22.5t22.5 -55.5v-914q0 -76 -30 -143t-80 -117.5t-117.5 -79t-143.5 -28.5q-33 0 -55.5 22.5t-22.5 55.5z" />
<glyph unicode="K" horiz-adv-x="1093" d="M74 78v1196q0 33 22.5 55.5t55.5 22.5q31 0 54 -22.5t23 -55.5v-336l492 395q20 18 49 19q29 0 52.5 -21.5t23.5 -56.5q0 -37 -27 -62l-420 -338l631 -747q20 -20 21 -51q0 -29 -22.5 -52.5t-55.5 -23.5q-37 0 -62 27l-632 751l-50 -39v-661q0 -33 -22.5 -55.5 t-54.5 -22.5q-31 0 -54.5 22.5t-23.5 55.5z" />
<glyph unicode="L" horiz-adv-x="1050" d="M74 78v1196q0 33 22.5 55.5t55.5 22.5q31 0 54 -22.5t23 -55.5v-1118h744q33 0 55.5 -22.5t22.5 -55.5q0 -31 -22.5 -54.5t-55.5 -23.5h-821q-31 0 -54.5 22.5t-23.5 55.5z" />
<glyph unicode="M" horiz-adv-x="1794" d="M70 78v796q0 100 34.5 188.5t97 154t147.5 104.5t186 39q123 0 213 -48t149 -128q66 78 153 127t207 49q100 0 186.5 -39t149 -104.5t97 -153.5t34.5 -189v-796q0 -33 -23.5 -55.5t-53.5 -22.5q-33 0 -55.5 22.5t-22.5 55.5v796q0 68 -22.5 128.5t-63.5 104.5t-98.5 70.5 t-127.5 26.5q-68 0 -121 -26.5t-88.5 -70.5t-54 -104.5t-18.5 -128.5v-796q0 -33 -22.5 -55.5t-55.5 -22.5t-55.5 22.5t-22.5 55.5v799q0 68 -19.5 127t-55 103t-89 70.5t-120.5 26.5q-68 0 -125.5 -26.5t-98.5 -70.5t-63.5 -104.5t-22.5 -128.5v-796q0 -33 -23.5 -55.5 t-54.5 -22.5q-33 0 -55 22.5t-22 55.5z" />
<glyph unicode="N" horiz-adv-x="1107" d="M66 78v796q0 100 38.5 188.5t104 154t155 104.5t189.5 39t189 -39t156 -104.5t105.5 -153.5t38.5 -189v-796q0 -33 -22.5 -55.5t-54.5 -22.5q-31 0 -54.5 22.5t-23.5 55.5v796q0 68 -26.5 128.5t-72 104.5t-106.5 70.5t-129 26.5q-70 0 -130.5 -26.5t-105.5 -70.5 t-70.5 -104.5t-25.5 -128.5v-796q0 -33 -22.5 -55.5t-55.5 -22.5q-31 0 -54 22.5t-23 55.5z" />
<glyph unicode="O" horiz-adv-x="1095" d="M59 442v467q0 100 39 188.5t104.5 155t154.5 104.5t192 38q100 0 188 -38t154.5 -104.5t105.5 -154.5t39 -189v-467q0 -100 -39 -188t-104.5 -154.5t-154.5 -104.5t-189 -38t-189.5 38t-156 104.5t-105.5 154.5t-39 188zM215 442q0 -68 26.5 -128t71.5 -104t106.5 -70.5 t129.5 -26.5q70 0 130 26.5t105 70.5t71 104.5t26 127.5v467q0 68 -27 128.5t-72 104.5t-105.5 70.5t-127.5 26.5q-70 0 -131.5 -26.5t-106.5 -70.5t-70.5 -104.5t-25.5 -128.5v-467z" />
<glyph unicode="P" horiz-adv-x="1067" d="M74 78v1196q0 33 22.5 55.5t55.5 22.5h409h2q100 0 188.5 -38t155 -102.5t105.5 -152.5t39 -189q0 -100 -39 -187t-104.5 -152.5t-154.5 -103.5t-190 -38h-334v-311q0 -33 -22.5 -55.5t-54.5 -22.5q-31 0 -54.5 22.5t-23.5 55.5zM229 545h334q70 0 130.5 25.5t105.5 69.5 t70.5 103.5t25.5 126.5q0 68 -26.5 127.5t-71.5 103.5t-105.5 69.5t-128.5 25.5h-334v-651z" />
<glyph unicode="Q" horiz-adv-x="1075" d="M49 436v475q0 100 39 188.5t104.5 155t154.5 104.5t192 38q100 0 188 -38t154.5 -104.5t105.5 -154.5t39 -189v-475q0 -90 -31.5 -171t-87 -144.5t-130.5 -106.5t-161 -57v-137q0 -33 -22.5 -55.5t-54.5 -22.5q-31 0 -54.5 22.5t-23.5 55.5v137q-86 14 -162 57 t-131 106.5t-87 144.5t-32 171zM205 436q0 -68 26.5 -128t71.5 -104t106.5 -71t129.5 -27q70 0 130 27t105 71t70.5 104.5t25.5 127.5v475q0 68 -26.5 128.5t-71.5 104.5t-105.5 70.5t-127.5 26.5q-70 0 -131.5 -26.5t-106.5 -70.5t-70.5 -104.5t-25.5 -128.5v-475z" />
<glyph unicode="R" horiz-adv-x="1122" d="M74 78v1196q0 33 23.5 55.5t54.5 22.5h411q100 0 189.5 -38t155 -103.5t104.5 -152.5t39 -188q0 -143 -75 -256.5t-196 -173.5l269 -311q18 -23 18 -51q0 -33 -22.5 -56.5t-55.5 -23.5t-59 27l-279 321q-16 18 -38.5 30.5t-47.5 12.5h-336v-311q0 -33 -23.5 -55.5 t-53.5 -22.5q-33 0 -55.5 22.5t-22.5 55.5zM229 545h334q68 0 128.5 25.5t105.5 69.5t71.5 103.5t26.5 126.5q0 68 -25.5 127.5t-70.5 103.5t-105.5 69.5t-130.5 25.5h-334v-651z" />
<glyph unicode="S" horiz-adv-x="1073" d="M47 303q0 33 20.5 55.5t51.5 22.5t54.5 -21.5t35.5 -56.5q37 -82 122 -136t201 -54q63 0 125 14t109 45t75.5 79t28.5 114t-27.5 119t-74.5 89.5t-107.5 56t-128.5 19.5q-94 0 -175 26.5t-139 77t-92 122t-34 161.5q0 170 120 264.5t320 94.5q4 0 48.5 -3t106 -22.5 t126 -60.5t109.5 -117l9 -22.5t5 -26.5q0 -25 -20.5 -50.5t-55.5 -25.5q-39 0 -59 27q-27 31 -52.5 57.5t-56 46t-69.5 30.5t-93 11q-78 0 -132 -17.5t-88 -45t-48 -64.5t-14 -76q0 -55 22.5 -98t60.5 -72.5t90 -45t111 -15.5q100 0 190.5 -31t158 -88t106.5 -139t39 -182 q0 -102 -40 -179t-108.5 -128.5t-159.5 -76t-194 -24.5q-20 0 -77.5 6t-129 36t-143.5 91.5t-119 169.5q-8 18 -8 43z" />
<glyph unicode="T" horiz-adv-x="1015" d="M20 1274q0 31 23 54.5t55 23.5h822q33 0 55 -22.5t22 -55.5q0 -31 -22.5 -54.5t-54.5 -23.5h-334v-1118q0 -33 -22.5 -55.5t-55.5 -22.5q-31 0 -54.5 22.5t-23.5 55.5v1118h-332q-33 0 -55.5 22.5t-22.5 55.5z" />
<glyph unicode="U" horiz-adv-x="1107" d="M66 442v832q0 33 22.5 55.5t54.5 22.5q31 0 54.5 -22.5t23.5 -55.5v-832q0 -68 26.5 -128t72 -104t106.5 -70.5t129 -26.5q70 0 130 26.5t105.5 70.5t71 104.5t25.5 127.5v832q0 33 22.5 55.5t55.5 22.5q31 0 54 -22.5t23 -55.5v-832q0 -100 -38.5 -188t-104 -154.5 t-155 -104.5t-189.5 -38t-189.5 38t-156 104.5t-105 154.5t-38.5 188z" />
<glyph unicode="V" horiz-adv-x="1245" d="M29 1276q0 29 20.5 53.5t54.5 24.5q23 0 42.5 -12.5t29.5 -34.5l447 -1043l446 1043q20 47 72 47q35 0 55.5 -24.5t20.5 -53.5q0 -16 -7 -31l-516 -1206q-12 -29 -41 -41q-16 -6 -30 -6q-51 0 -72 47l-516 1206q-6 15 -6 31z" />
<glyph unicode="W" horiz-adv-x="1794" d="M70 442v832q0 33 23.5 55.5t53.5 22.5q33 0 55.5 -22.5t22.5 -55.5v-832q0 -68 22.5 -128t63.5 -104t98.5 -70.5t127.5 -26.5q68 0 121 26.5t88.5 70.5t54 104.5t18.5 127.5v832q0 33 22.5 55.5t55.5 22.5t55.5 -22.5t22.5 -55.5v-834q0 -68 19.5 -127t55 -103t89 -70.5 t121.5 -26.5t125 26.5t98 70.5t63.5 104.5t22.5 127.5v832q0 33 23.5 55.5t54.5 22.5q33 0 55 -22.5t22 -55.5v-832q0 -100 -34.5 -188t-97 -154.5t-147.5 -104.5t-185 -38q-123 0 -213.5 48t-149.5 128q-66 -78 -153 -127t-207 -49q-100 0 -186.5 38t-149 104.5t-97 154.5 t-34.5 188z" />
<glyph unicode="X" horiz-adv-x="1206" d="M68 78q0 29 18 51l420 549l-420 549q-18 20 -18 49q0 31 23.5 54.5t58.5 23.5q16 0 31.5 -6.5t25.5 -20.5l397 -520l397 520q10 14 25.5 20.5t32.5 6.5q35 0 57.5 -23.5t22.5 -54.5q0 -12 -3 -25.5t-14 -23.5l-420 -549l420 -549q16 -18 17 -51q0 -29 -22.5 -53.5 t-57.5 -24.5t-58 29l-397 520l-397 -520q-23 -29 -57 -29q-35 0 -58.5 24.5t-23.5 53.5z" />
<glyph unicode="Y" horiz-adv-x="1058" d="M41 874v400q0 33 22.5 55.5t55.5 22.5q31 0 54.5 -22.5t23.5 -55.5v-400q0 -68 26.5 -128t71.5 -104t106.5 -70.5t128.5 -26.5q70 0 130.5 26.5t105.5 70.5t70.5 104.5t25.5 127.5v400q0 33 22.5 55.5t55.5 22.5q31 0 54.5 -22.5t23.5 -55.5v-400q0 -90 -32 -170.5 t-87 -144t-130 -106.5t-161 -58v-317q0 -33 -22.5 -55.5t-55.5 -22.5q-31 0 -54 22.5t-23 55.5v317q-86 14 -162 57.5t-131.5 107t-87 144t-31.5 170.5z" />
<glyph unicode="Z" horiz-adv-x="1112" d="M47 76q0 25 14 45l758 1075h-669q-33 0 -55.5 22.5t-22.5 55.5q0 31 22.5 54.5t55.5 23.5h800q41 0 71 -18.5t30 -55.5q0 -25 -13 -45l-759 -1077h708q33 0 55.5 -22.5t22.5 -55.5q0 -31 -22.5 -54.5t-55.5 -23.5h-846q-43 0 -68.5 21.5t-25.5 54.5z" />
<glyph unicode="[" horiz-adv-x="540" d="M74 -365v1717q0 33 23.5 55.5t54.5 22.5h292q33 0 55.5 -24t22.5 -54q0 -33 -22.5 -55.5t-55.5 -22.5h-215v-1561h215q33 0 55.5 -22.5t22.5 -55.5q0 -31 -22.5 -54t-55.5 -23h-292q-31 0 -54.5 22t-23.5 55z" />
<glyph unicode="\" horiz-adv-x="1083" d="M6 1276q0 31 23.5 54.5t58.5 23.5q16 0 31.5 -6.5t25.5 -20.5l916 -1198q16 -18 16 -51q0 -29 -22.5 -53.5t-57.5 -24.5t-57 29l-915 1198q-19 20 -19 49z" />
<glyph unicode="]" horiz-adv-x="540" d="M16 -365q0 33 22.5 55.5t55.5 22.5h215v1561h-215q-33 0 -55.5 22.5t-22.5 55.5q0 31 22.5 54.5t55.5 23.5h293q31 0 54.5 -23t23.5 -55v-1717q0 -33 -23.5 -55t-54.5 -22h-293q-33 0 -55.5 23t-22.5 54z" />
<glyph unicode="^" horiz-adv-x="978" d="M37 989q0 35 29 58l376 288q23 16 45 17q29 0 54 -19l374 -286q14 -10 20.5 -25.5t6.5 -32.5q0 -35 -23.5 -58.5t-54.5 -23.5q-29 0 -49 19l-326 250l-323 -250q-23 -18 -51 -19q-29 0 -53.5 23.5t-24.5 58.5z" />
<glyph unicode="_" horiz-adv-x="1116" d="M70 -86q0 33 22.5 55.5t54.5 22.5h822q33 0 55.5 -23.5t22.5 -54.5q0 -33 -23 -55.5t-55 -22.5h-822q-33 0 -55 23.5t-22 54.5z" />
<glyph unicode="`" horiz-adv-x="309" d="M33 1284q0 31 22.5 53.5t57.5 22.5q43 0 65 -37l84 -145q10 -18 10 -41q0 -31 -21.5 -53.5t-55.5 -22.5q-45 0 -66 37l-84 145q-12 18 -12 41z" />
<glyph unicode="a" horiz-adv-x="864" d="M57 360v295q0 76 29 143.5t80 118t117.5 79t144.5 28.5q76 0 143.5 -28.5t117.5 -79t80 -118t30 -143.5v-577q0 -33 -23.5 -55.5t-54.5 -22.5q-29 0 -50.5 17.5t-25.5 43.5q-94 -70 -217 -69q-76 0 -143.5 28.5t-117.5 79t-80 117.5t-30 143zM213 360q0 -43 17.5 -81.5 t46 -68.5t68.5 -46.5t83 -16.5t82 15.5t67.5 43t46 64.5t19.5 80v305q0 43 -17.5 82t-46 69t-68.5 46t-83 16q-45 0 -84 -16t-68.5 -46t-46 -69t-16.5 -82v-295z" />
<glyph unicode="b" horiz-adv-x="833" d="M68 360v938q0 33 22.5 55.5t54.5 22.5q31 0 54.5 -22.5t23.5 -55.5v-344q45 33 100.5 51.5t114.5 18.5q76 0 143.5 -28.5t119 -79t80 -118t28.5 -143.5v-295q0 -76 -29.5 -143t-80 -117.5t-118 -79t-143.5 -28.5q-78 0 -144.5 28.5t-117.5 79t-79.5 117.5t-28.5 143z M223 360q0 -43 16.5 -81.5t46 -68.5t68.5 -46.5t84 -16.5q43 0 83 16.5t68.5 46.5t46 68.5t17.5 81.5v295q0 43 -16 82t-46 69t-69 46t-84 16q-43 0 -82 -16t-67.5 -44t-46 -64.5t-19.5 -79.5v-304z" />
<glyph unicode="c" horiz-adv-x="819" d="M55 360v295q0 78 30 145.5t82 117t120.5 78t146.5 28.5q14 0 56 -5t93.5 -27.5t101.5 -68.5t83 -128q6 -16 6 -29q0 -33 -22.5 -55.5t-55.5 -22.5q-25 0 -44 13.5t-27 35.5q-29 61 -82.5 96t-116.5 35q-45 0 -84 -16t-68.5 -46t-46 -69t-16.5 -82v-295q0 -43 17.5 -81.5 t46 -68.5t68.5 -46.5t83 -16.5q66 0 119 35t80 97q10 23 28.5 36t42.5 13q33 0 55.5 -23.5t22.5 -54.5q0 -14 -6 -29q-41 -90 -98.5 -137t-111.5 -67.5t-92 -22.5t-40 -2q-76 0 -143.5 28.5t-117.5 79t-80 117.5t-30 143z" />
<glyph unicode="d" horiz-adv-x="835" d="M25 360v295q0 76 29.5 143.5t79.5 118t117.5 79t143.5 28.5q59 0 113.5 -18.5t101.5 -51.5v344q0 33 22.5 55.5t55.5 22.5q31 0 54.5 -22.5t23.5 -55.5v-938q0 -76 -29.5 -143t-80 -117.5t-118 -79t-143.5 -28.5q-78 0 -144.5 28.5t-117.5 79t-79.5 117.5t-28.5 143z M180 360q0 -43 16.5 -81.5t46 -68.5t68.5 -46.5t84 -16.5q43 0 83 16.5t68.5 46.5t46 68.5t17.5 81.5v295q0 43 -16 82t-46 69t-69 46t-84 16q-43 0 -83 -16t-68.5 -46t-46 -69t-17.5 -82v-295z" />
<glyph unicode="e" horiz-adv-x="851" d="M57 360v295q0 76 29 143.5t80 118t117.5 79t144.5 28.5q76 0 143.5 -28.5t117.5 -79t80 -118t30 -143.5v-147q0 -33 -22.5 -55.5t-55.5 -22.5h-508v-70q0 -43 17.5 -81.5t46 -68.5t68.5 -46.5t83 -16.5q66 0 118 34t79 91l2 7q8 23 27.5 36t43.5 13q33 0 55.5 -23.5 t22.5 -54.5q0 -14 -6 -29l-4 -8q-43 -98 -133 -159.5t-205 -61.5q-76 0 -143.5 28.5t-117.5 79t-80 117.5t-30 143zM213 586h430v69q0 43 -17.5 82t-46 69t-68.5 46t-83 16q-45 0 -84 -16t-68.5 -46t-46 -69t-16.5 -82v-69z" />
<glyph unicode="f" horiz-adv-x="790" d="M68 78v930q0 78 29.5 145.5t80.5 116.5t120 77.5t146 28.5q14 0 54.5 -5t91.5 -27.5t102 -68.5t88 -128q6 -16 6 -29q0 -33 -22.5 -55.5t-54.5 -22.5q-51 0 -72 50q-27 61 -80 96t-119 35q-43 0 -83 -16.5t-68.5 -46.5t-46 -68.5t-17.5 -81.5v-422h221q33 0 55.5 -23.5 t22.5 -54.5q0 -33 -22.5 -55.5t-55.5 -22.5h-221v-352q0 -33 -23.5 -55.5t-54.5 -22.5q-33 0 -55 22.5t-22 55.5z" />
<glyph unicode="g" horiz-adv-x="841" d="M37 360v295q0 76 28.5 143.5t80 118t118 79t144.5 28.5q76 0 143 -28.5t117.5 -79t80 -118t29.5 -143.5v-647q0 -76 -29.5 -143.5t-80 -117.5t-118 -78.5t-142.5 -28.5q-33 0 -55.5 22.5t-22.5 54.5q0 33 22.5 55.5t55.5 22.5q43 0 82.5 16.5t68.5 46t46.5 68.5t17.5 82 v51q-96 -68 -215 -67q-76 0 -143.5 28.5t-118 79t-80 117.5t-29.5 143zM193 360q0 -43 17 -81.5t46 -68.5t69 -46.5t83 -16.5t81.5 15.5t67.5 43t46.5 64.5t19.5 80v305q0 43 -17.5 82t-46.5 69t-68.5 46t-82.5 16q-45 0 -84 -16t-69 -46t-46 -69t-16 -82v-295z" />
<glyph unicode="h" horiz-adv-x="845" d="M74 78v592v628q0 33 22.5 55.5t55.5 22.5q31 0 54 -22.5t23 -55.5v-344q45 33 100.5 51.5t114.5 18.5q76 0 143.5 -28.5t118 -79t80 -118t29.5 -143.5v-577q0 -33 -23.5 -55.5t-54.5 -22.5q-33 0 -55.5 22.5t-22.5 55.5v577q0 43 -17 82t-46 69t-69 46t-83 16 q-45 0 -82.5 -16t-67.5 -44t-46.5 -64.5t-18.5 -79.5v-586q0 -33 -23.5 -55.5t-53.5 -22.5q-33 0 -55.5 22.5t-22.5 55.5z" />
<glyph unicode="i" horiz-adv-x="301" d="M70 78v860q0 33 22.5 55.5t54.5 22.5q31 0 54.5 -22.5t23.5 -55.5v-860q0 -33 -22.5 -55.5t-55.5 -22.5q-31 0 -54 22.5t-23 55.5zM70 1239v59q0 33 22.5 55.5t54.5 22.5q31 0 54.5 -22.5t23.5 -55.5v-59q0 -33 -22.5 -55.5t-55.5 -22.5q-31 0 -54 22.5t-23 55.5z" />
<glyph unicode="j" horiz-adv-x="512" d="M2 -283q0 33 22.5 55.5t55.5 22.5q43 0 81 16.5t67.5 44t47 64.5t19.5 80v938q0 33 23.5 55.5t54.5 22.5q33 0 55.5 -22.5t22.5 -55.5v-930q0 -76 -30 -143.5t-80 -117.5t-117.5 -78.5t-143.5 -28.5q-33 0 -55.5 22t-22.5 55zM295 1239v59q0 33 22.5 55.5t55.5 22.5 q31 0 54.5 -22.5t23.5 -55.5v-59q0 -33 -22.5 -55.5t-55.5 -22.5q-31 0 -54.5 22.5t-23.5 55.5z" />
<glyph unicode="k" horiz-adv-x="845" d="M74 78v1196q0 33 22.5 55.5t55.5 22.5q31 0 54 -22.5t23 -55.5v-592l402 324q20 18 49 18t52.5 -21.5t23.5 -56.5q0 -37 -27 -61l-330 -267l414 -491q20 -20 21 -51q0 -29 -23 -52.5t-55 -23.5q-37 0 -62 27l-415 495l-50 -39v-405q0 -33 -22.5 -55.5t-54.5 -22.5 q-31 0 -54.5 22.5t-23.5 55.5z" />
<glyph unicode="l" horiz-adv-x="309" d="M74 78v1196q0 33 22.5 55.5t55.5 22.5q31 0 54 -22.5t23 -55.5v-1196q0 -33 -22.5 -55.5t-54.5 -22.5q-31 0 -54.5 22.5t-23.5 55.5z" />
<glyph unicode="m" horiz-adv-x="1384" d="M70 78v577q0 76 25.5 143.5t72.5 118t110.5 79t141.5 28.5q86 0 155.5 -37t116.5 -96q47 59 117 96t156 37q76 0 140 -28.5t110.5 -79t73 -118t26.5 -143.5v-577q0 -33 -23.5 -55.5t-54.5 -22.5q-33 0 -55.5 22.5t-22.5 55.5v577q0 88 -53 150.5t-141 62.5 q-92 0 -143.5 -62.5t-51.5 -150.5v-577q0 -33 -23.5 -55.5t-54.5 -22.5q-33 0 -55.5 22.5t-22.5 55.5v577q0 88 -53 150.5t-141 62.5q-92 0 -143.5 -62.5t-51.5 -150.5v-577q0 -33 -23.5 -55.5t-54.5 -22.5q-33 0 -55 22.5t-22 55.5z" />
<glyph unicode="n" horiz-adv-x="872" d="M66 78v577q0 76 28.5 143.5t79.5 118t117.5 79t144.5 28.5q76 0 143.5 -28.5t118 -79t80 -118t29.5 -143.5v-577q0 -33 -23.5 -55.5t-54.5 -22.5q-33 0 -55.5 22.5t-22.5 55.5v577q0 43 -17.5 82t-46 69t-68.5 46t-83 16q-45 0 -84 -16t-68.5 -46t-46 -69t-16.5 -82v-577 q0 -33 -23.5 -55.5t-54.5 -22.5q-33 0 -55 22.5t-22 55.5z" />
<glyph unicode="o" d="M57 360v295q0 76 29 143.5t80 118t117.5 79t144.5 28.5q76 0 143.5 -28.5t117.5 -79t80 -118t30 -143.5v-295q0 -76 -29 -143t-80 -117.5t-118.5 -79t-143.5 -28.5t-143.5 28.5t-117.5 79t-80 117.5t-30 143zM213 360q0 -43 17.5 -81.5t46 -68.5t68.5 -46.5t83 -16.5 q45 0 84 16.5t68.5 46.5t46 68.5t16.5 81.5v295q0 43 -17.5 82t-46 69t-68.5 46t-83 16q-45 0 -84 -16t-68.5 -46t-46 -69t-16.5 -82v-295z" />
<glyph unicode="p" horiz-adv-x="833" d="M68 -283v627v311q0 76 28.5 143.5t79.5 118t117.5 79t144.5 28.5q76 0 143.5 -28.5t118 -79t80 -118t29.5 -143.5v-295q0 -76 -28.5 -143t-80 -117.5t-119 -79t-143.5 -28.5q-59 0 -114.5 18.5t-100.5 50.5v-344q0 -33 -23.5 -55t-54.5 -22q-33 0 -55 22t-22 55zM223 360 q0 -43 17.5 -81.5t46 -68.5t68.5 -46.5t83 -16.5q45 0 84 16.5t69 46.5t46 68.5t16 81.5v295q0 43 -17.5 82t-46 69t-68.5 46t-83 16q-45 0 -84 -16t-68.5 -46t-46 -69t-16.5 -82v-295z" />
<glyph unicode="q" horiz-adv-x="835" d="M25 360v295q0 76 29.5 143.5t79.5 118t117.5 79t143.5 28.5t143.5 -28.5t119 -79t80 -118t28.5 -143.5v-311v-627q0 -33 -22.5 -55t-55.5 -22q-31 0 -54.5 22.5t-23.5 54.5v344q-45 -33 -100 -51t-115 -18q-78 0 -144.5 28.5t-117.5 79t-79.5 117.5t-28.5 143zM180 360 q0 -43 16.5 -81.5t46 -68.5t68.5 -46.5t84 -16.5q43 0 83 16.5t68.5 46.5t46 68.5t17.5 81.5v295q0 43 -16 82t-46 69t-69 46t-84 16q-43 0 -83 -16t-68.5 -46t-46 -69t-17.5 -82v-295z" />
<glyph unicode="r" horiz-adv-x="684" d="M74 78v592v268q0 33 22.5 55.5t55.5 22.5q27 0 48 -17.5t27 -46.5q96 72 226 72l35 -3q36 -3 78 -15.5t77 -36t35 -66.5q0 -35 -22.5 -56.5t-55.5 -21.5q-27 0 -47 15q-51 29 -109 28q-45 0 -82.5 -16t-67.5 -44t-46.5 -64.5t-18.5 -79.5v-586q0 -33 -22.5 -55.5 t-54.5 -22.5q-31 0 -54.5 22.5t-23.5 55.5z" />
<glyph unicode="s" horiz-adv-x="839" d="M51 250q0 31 21.5 54.5t56.5 23.5q25 0 43 -13.5t29 -35.5q27 -61 90 -96.5t129 -35.5q43 0 83 7.5t68.5 25t46 47t17.5 72.5q0 88 -62.5 120t-152.5 32q-76 0 -140.5 14t-110.5 48t-72.5 88t-26.5 136q0 63 26.5 116.5t72.5 91.5t110.5 58.5t140.5 20.5q61 -2 119 -18 q49 -14 100 -46t86 -90q14 -29 14 -49q0 -31 -21.5 -53.5t-51.5 -22.5q-37 0 -64 33q-39 47 -78 68.5t-104 21.5q-88 0 -141.5 -37.5t-53.5 -93.5q0 -74 51.5 -102.5t143.5 -28.5q76 0 143.5 -19.5t117.5 -58.5t80 -96t30 -133q0 -78 -30 -135.5t-82 -96t-121 -57 t-144 -18.5q-16 0 -60.5 5t-97.5 27.5t-107.5 68.5t-91.5 128q-6 15 -6 29z" />
<glyph unicode="t" horiz-adv-x="790" d="M66 360v916q0 33 22.5 55.5t54.5 22.5q31 0 54.5 -22.5t23.5 -55.5v-260h397q33 0 55.5 -22.5t22.5 -55.5q0 -31 -22.5 -54.5t-55.5 -23.5h-397v-500q0 -43 17.5 -81.5t46 -68.5t68.5 -46.5t83 -16.5q66 0 119 35t80 97q10 23 28.5 36t43.5 13q33 0 55 -23.5t22 -54.5 q0 -14 -6 -29q-41 -90 -98 -137t-111.5 -67.5t-92.5 -22.5t-40 -2q-76 0 -143.5 28.5t-117.5 79t-79.5 117.5t-29.5 143z" />
<glyph unicode="u" horiz-adv-x="872" d="M66 360v578q0 33 22.5 55.5t54.5 22.5q31 0 54.5 -22.5t23.5 -55.5v-578q0 -43 16.5 -81.5t46 -68.5t68.5 -46.5t84 -16.5q43 0 83 16.5t68.5 46.5t46 68.5t17.5 81.5v578q0 33 22.5 55.5t55.5 22.5q31 0 54.5 -22.5t23.5 -55.5v-578q0 -76 -29.5 -143t-80 -117.5 t-118 -79t-143.5 -28.5q-78 0 -144.5 28.5t-117.5 79t-79.5 117.5t-28.5 143z" />
<glyph unicode="v" horiz-adv-x="962" d="M31 940q0 29 20.5 53.5t54.5 24.5q23 0 42.5 -12.5t29.5 -34.5l303 -707l303 707q20 47 72 47q35 0 55.5 -24.5t20.5 -53.5q0 -16 -6 -31l-373 -870q-23 -47 -72 -47q-53 0 -71 47l-373 870q-6 15 -6 31z" />
<glyph unicode="w" horiz-adv-x="1384" d="M70 360v578q0 33 23.5 55.5t53.5 22.5q33 0 55.5 -22.5t22.5 -55.5v-578q0 -88 53.5 -150.5t141.5 -62.5q92 0 143 62.5t51 150.5v578q0 33 24 55.5t54 22.5q33 0 55.5 -22.5t22.5 -55.5v-578q0 -88 53.5 -150.5t141.5 -62.5q92 0 143 62.5t51 150.5v578q0 33 23.5 55.5 t54.5 22.5q33 0 55.5 -22.5t22.5 -55.5v-578q0 -76 -25.5 -143t-73 -117.5t-112 -79t-139.5 -28.5q-86 0 -156 37t-117 96q-47 -59 -116.5 -96t-155.5 -37q-76 0 -140.5 28.5t-110.5 79t-72.5 117.5t-26.5 143z" />
<glyph unicode="x" horiz-adv-x="1001" d="M70 74q0 29 18 51l311 381l-311 381q-18 20 -18 49q0 31 23.5 54.5t58.5 23.5q16 0 31.5 -6.5t25.5 -20.5l293 -358l293 358q10 14 25.5 20.5t31.5 6.5q35 0 57.5 -23.5t22.5 -54.5q0 -12 -3 -25.5t-14 -23.5l-313 -381l313 -381q16 -18 17 -51q0 -29 -22.5 -53.5 t-57.5 -24.5t-57 29l-293 356l-293 -356q-23 -29 -57 -29q-35 0 -58.5 24.5t-23.5 53.5z" />
<glyph unicode="y" horiz-adv-x="833" d="M45 360v578q0 33 22.5 55.5t55.5 22.5q31 0 54.5 -22.5t23.5 -55.5v-578q0 -43 16 -81.5t46 -68.5t69 -46.5t84 -16.5q43 0 83 16.5t68.5 46.5t46 68.5t17.5 81.5v578q0 33 22.5 55.5t55.5 22.5q31 0 54 -22.5t23 -55.5v-578q0 -66 -22.5 -126t-61 -107t-93 -81 t-115.5 -46v-283q0 -33 -22.5 -55t-55.5 -22q-31 0 -54.5 22.5t-23.5 54.5v283q-63 12 -116.5 46t-92.5 81t-61.5 107t-22.5 126z" />
<glyph unicode="z" horiz-adv-x="901" d="M61 76q0 25 15 45l520 739h-424q-33 0 -55.5 22.5t-22.5 55.5q0 31 22.5 54.5t55.5 23.5h555q41 0 70.5 -18.5t29.5 -55.5q0 -25 -12 -45l-522 -741h465q33 0 55.5 -22.5t22.5 -55.5q0 -31 -22.5 -54.5t-55.5 -23.5h-602q-43 0 -69 21.5t-26 54.5z" />
<glyph unicode="{" horiz-adv-x="688" d="M14 494q0 31 22.5 54t55.5 23h41q25 0 47.5 21.5t22.5 46.5v422q0 76 29.5 143.5t79.5 117.5t118 79t143 29q33 0 55.5 -23t22.5 -55q0 -33 -22.5 -55.5t-55.5 -22.5q-43 0 -81.5 -16.5t-67.5 -44t-46.5 -64.5t-19.5 -80v-498q0 -29 -20.5 -51t-48.5 -26q29 -4 49 -27 t20 -51v-498q2 -43 19.5 -80t46.5 -64.5t67.5 -44t81.5 -16.5q33 0 55.5 -22.5t22.5 -55.5t-22.5 -55t-55.5 -22q-76 0 -143.5 28.5t-117.5 78.5t-79.5 117.5t-29.5 143.5v420q0 25 -22.5 47.5t-47.5 22.5h-41q-33 0 -55.5 22.5t-22.5 55.5z" />
<glyph unicode="|" horiz-adv-x="309" d="M74 -283v1563q0 33 22.5 55.5t55.5 22.5q31 0 54 -22.5t23 -55.5v-1563q0 -33 -22.5 -55t-54.5 -22q-31 0 -54.5 22t-23.5 55z" />
<glyph unicode="}" horiz-adv-x="688" d="M37 -365q0 33 22.5 55.5t55.5 22.5q43 0 80.5 16.5t67.5 44t47.5 64.5t19.5 80v498q0 29 20.5 51t48.5 27q-29 4 -49 26.5t-20 50.5v498q-2 43 -19.5 80t-47.5 64.5t-67.5 44t-80.5 16.5q-33 0 -55.5 22.5t-22.5 55.5t22.5 55.5t55.5 22.5q76 0 143.5 -29t117.5 -79 t79.5 -117.5t29.5 -143.5v-422q0 -25 22.5 -46.5t47.5 -21.5h41q33 0 55.5 -23.5t22.5 -53.5q0 -33 -22.5 -55.5t-55.5 -22.5h-41q-25 0 -47.5 -22.5t-22.5 -47.5v-420q0 -76 -29.5 -143.5t-79.5 -117.5t-118 -78.5t-143 -28.5q-33 0 -55.5 22t-22.5 55z" />
<glyph unicode="~" horiz-adv-x="1095" d="M43 428q0 29 16 47q55 68 131 102.5t158 34.5q61 0 120.5 -20.5t113.5 -61.5l36 -32q25 -23 60 -32t65 -9q47 0 92.5 19.5t77.5 60.5q20 27 60 26q35 0 56.5 -24.5t21.5 -53.5q0 -25 -17 -47q-55 -68 -132 -102.5t-159 -34.5q-59 2 -120.5 19.5t-110.5 62.5l-37 33 q-25 23 -59.5 32t-65.5 9q-47 0 -92 -19.5t-78 -60.5q-23 -29 -59 -29q-35 0 -56.5 25.5t-21.5 54.5z" />
<glyph unicode="&#xa1;" horiz-adv-x="301" d="M225.004 1282v-58.9961q0 -32.998 -23.498 -55.4971q-23.499 -22.499 -53.4971 -22.499q-32.998 0 -55.4961 22.499q-22.499 22.499 -22.499 55.4971v58.9961q0 32.998 23.499 55.4961q23.498 22.499 54.4961 22.499q32.998 0 54.9971 -22.499 q21.998 -22.498 21.998 -55.4961zM225.004 963.024v-884.946q0 -32.998 -23.498 -55.4961q-23.499 -22.499 -53.4971 -22.499q-32.998 0 -55.4961 22.499q-22.499 22.498 -22.499 55.4961v884.946q0 32.998 23.499 55.4961q23.498 22.499 54.4961 22.499 q32.998 0 54.9971 -22.499q21.998 -22.498 21.998 -55.4961z" />
<glyph unicode="&#xa2;" horiz-adv-x="784" d="M39 360v295q0 66 22.5 125.5t61.5 107.5t93 80.5t116 47.5v80q0 33 22.5 55.5t55.5 22.5q31 0 54 -23t23 -55v-80q31 -6 67 -18.5t72 -38t68.5 -65.5t57.5 -99q6 -16 6 -29q0 -33 -22.5 -55.5t-55.5 -22.5q-51 0 -72 49q-16 41 -50 70t-71 45v-690q39 16 71 45t50 72 q10 23 28.5 36t43.5 13q33 0 55.5 -23.5t22.5 -54.5q0 -14 -6 -29q-25 -57 -59 -97t-69.5 -65.5t-71.5 -39t-65 -19.5v-98q0 -33 -22.5 -55.5t-54.5 -22.5q-31 0 -54.5 22.5t-23.5 55.5v98q-61 12 -115.5 46t-93.5 81t-61.5 107t-22.5 126zM195 360q0 -68 38.5 -122 t98.5 -76v692q-61 -23 -99 -77t-38 -122v-295z" />
<glyph unicode="&#xa3;" horiz-adv-x="1093" d="M35 109q0 29 21.5 55t53 50t66.5 40t62 25v231h-95q-33 0 -55 22.5t-22 55.5q0 31 22.5 54.5t54.5 23.5h95v288q0 84 32.5 158t88 129t130 87t158.5 32q43 0 97.5 -13.5t102.5 -37t79.5 -54t31.5 -65.5q0 -33 -22.5 -55.5t-54.5 -22.5q-39 0 -64 31q-72 66 -170 65 q-53 0 -99 -20.5t-81 -54t-54.5 -80.5t-19.5 -99v-288h314q33 0 55 -22.5t22 -55.5q0 -31 -22.5 -54.5t-54.5 -23.5h-314v-221q96 -12 180 -78l37 -33q25 -23 60 -32t65 -9q47 0 92 19.5t78 60.5q20 27 60 27q35 0 56 -24.5t21 -53.5q0 -25 -16 -47q-55 -68 -132 -102.5 t-159 -34.5q-59 2 -120.5 19t-110.5 62l-37 33q-25 23 -59.5 32t-65.5 9q-47 0 -92 -19.5t-78 -60.5q-23 -29 -59 -28q-35 0 -56.5 25.5t-21.5 54.5z" />
<glyph unicode="&#xa5;" horiz-adv-x="1071" d="M47 1038v236q0 33 22.5 55.5t55.5 22.5q31 0 54.5 -22.5t23.5 -55.5v-236q0 -68 26.5 -128t71.5 -104t106.5 -70.5t129.5 -26.5q70 0 130 26.5t105 70.5t70.5 104.5t25.5 127.5v236q0 33 22.5 55.5t55.5 22.5q31 0 54.5 -22.5t23.5 -55.5v-236q0 -90 -31.5 -171 t-87 -144.5t-130.5 -106.5t-161 -57v-53h203q33 0 55.5 -22.5t22.5 -55.5q0 -31 -22.5 -54.5t-55.5 -23.5h-203v-55h203q33 0 55.5 -22.5t22.5 -55.5q0 -31 -22.5 -54.5t-55.5 -23.5h-203v-61q0 -33 -22.5 -55.5t-54.5 -22.5q-31 0 -54.5 22.5t-23.5 55.5v61h-205 q-33 0 -55.5 22.5t-22.5 55.5q0 31 22.5 54.5t55.5 23.5h205v55h-205q-33 0 -55.5 22.5t-22.5 55.5q0 31 22.5 54.5t55.5 23.5h205v53q-86 14 -162 57t-131 106.5t-87 144.5t-32 171z" />
<glyph unicode="&#xa6;" horiz-adv-x="309" d="M74 -283v662q0 33 22.5 55.5t55.5 22.5q31 0 54 -22.5t23 -55.5v-662q0 -33 -22.5 -55t-54.5 -22q-31 0 -54.5 22t-23.5 55zM74 618v662q0 33 22.5 55.5t55.5 22.5q31 0 54 -22.5t23 -55.5v-662q0 -33 -22.5 -55t-54.5 -22q-31 0 -54.5 22t-23.5 55z" />
<glyph unicode="&#xa8;" horiz-adv-x="509" d="M63 1286q0 33 23 55.5t55 22.5q31 0 54.5 -22.5t23.5 -55.5t-22.5 -55.5t-55.5 -22.5q-31 0 -54.5 22.5t-23.5 55.5zM289 1286q0 33 22.5 55.5t55.5 22.5q31 0 54 -22.5t23 -55.5t-22.5 -55.5t-54.5 -22.5q-31 0 -54.5 22.5t-23.5 55.5z" />
<glyph unicode="&#xaa;" horiz-adv-x="864" d="M47.208 904.148v202.524q0 52.1758 19.9482 98.5166q19.9482 46.3398 55.0293 81.0098q35.0811 34.6689 80.8242 54.2344q45.7432 19.5664 99.3965 19.5664q52.2783 0 98.709 -19.5664q46.4316 -19.5654 80.8242 -54.2344q34.3936 -34.6699 55.0293 -81.0098 q20.6367 -46.3408 20.6367 -98.5166v-396.124q0 -22.6553 -16.165 -38.1016q-16.165 -15.4473 -37.4893 -15.4473q-19.9473 0 -34.7373 12.0137q-14.7891 12.0146 -17.54 29.8643q-64.6592 -48.0566 -149.268 -47.3701q-52.2773 0 -98.708 19.5664 q-46.4316 19.5654 -80.8242 54.2344q-34.3936 34.6699 -55.0293 80.667q-20.6367 45.9971 -20.6367 98.1729zM154.516 904.148q0 -29.5205 12.0371 -55.9512q12.0381 -26.4316 31.6426 -47.0273q19.6035 -20.5957 47.1182 -31.9238q27.5146 -11.3271 57.0928 -11.3271 q29.5791 0 56.4053 10.6416q26.8271 10.6406 46.4316 29.5195q19.6035 18.8799 31.6416 44.2812q12.0371 25.4014 13.4131 54.9219v209.39q0 29.5205 -12.0371 56.2949q-12.0381 26.7744 -31.6426 47.3701q-19.6035 20.5957 -47.1182 31.5801t-57.0938 10.9844 q-30.9531 0 -57.7803 -10.9844t-47.1191 -31.5801t-31.6416 -47.3701t-11.3496 -56.2949v-202.524z" />
<glyph unicode="&#xab;" horiz-adv-x="849" d="M31 498q0 29 18 53l287 375q10 14 25.5 20t31.5 6q35 0 57.5 -23.5t22.5 -54.5q0 -12 -3 -25t-13 -24l-250 -325l250 -324q16 -18 16 -51q0 -29 -22.5 -53.5t-57.5 -24.5t-57 29l-289 377q-16 22 -16 45zM338 498q0 29 18 53l287 375q10 14 25.5 20t31.5 6 q35 0 57.5 -23.5t22.5 -54.5q0 -12 -3 -25t-13 -24l-250 -325l250 -324q16 -18 16 -51q0 -29 -22.5 -53.5t-57.5 -24.5t-57 29l-289 377q-16 22 -16 45z" />
<glyph unicode="&#xad;" d="M70 578q0 31 22.5 54t54.5 23h564q33 0 55 -22.5t22 -54.5q0 -31 -22.5 -54.5t-54.5 -23.5h-564q-33 0 -55 22.5t-22 55.5z" />
<glyph unicode="&#xb0;" horiz-adv-x="561" d="M51 1128q0 47 18.5 89.5t49.5 73t72.5 49t89.5 18.5q47 0 89 -18.5t72.5 -49t49 -72.5t18.5 -90q0 -47 -18.5 -89t-49 -72.5t-72.5 -49t-89 -18.5t-89 18.5t-73 49t-49.5 72.5t-18.5 89zM209 1128q0 -29 21.5 -50t50.5 -21t50 21.5t21 49.5q0 29 -21.5 50.5t-49.5 21.5 q-29 0 -50.5 -21.5t-21.5 -50.5z" />
<glyph unicode="&#xb1;" horiz-adv-x="792" d="M37 168q0 31 22.5 54.5t55.5 23.5h563q33 0 55.5 -22.5t22.5 -55.5q0 -31 -22.5 -54.5t-55.5 -23.5h-563q-33 0 -55.5 22.5t-22.5 55.5zM37 659q0 31 22.5 54.5t55.5 23.5h202v203q0 33 22.5 55.5t55.5 22.5q31 0 54.5 -22.5t23.5 -55.5v-203h205q33 0 55.5 -22.5 t22.5 -55.5q0 -31 -22.5 -54t-55.5 -23h-205v-205q0 -33 -22.5 -55.5t-55.5 -22.5q-31 0 -54.5 22.5t-23.5 55.5v205h-202q-33 0 -55.5 22t-22.5 55z" />
<glyph unicode="&#xb2;" horiz-adv-x="940" d="M55 78q0 29 19 51l590 700q25 25 41 71t16 87v2q0 51 -19.5 97.5t-54.5 81t-82 54t-100 19.5q-51 0 -97 -19.5t-81 -53t-55.5 -77.5t-20.5 -96q0 -33 -22.5 -55t-55.5 -22t-55.5 22.5t-22.5 54.5q0 82 33 155t89 128t131 87t157 32q86 0 160.5 -33t130 -88t88.5 -129 t33 -158v-2q0 -74 -25 -139.5t-70 -118.5h2l-477 -573h512q33 0 55.5 -22.5t22.5 -55.5t-22.5 -55.5t-55.5 -22.5h-686q-33 0 -55.5 22.5t-22.5 55.5z" />
<glyph unicode="&#xb3;" horiz-adv-x="913" d="M43 365q0 33 22.5 55t55.5 22t55.5 -22.5t22.5 -54.5q0 -53 20.5 -98.5t54 -80t79.5 -54t100 -19.5q53 0 100 19.5t82 54t54.5 79.5t19.5 99v2q0 51 -19.5 102t-53.5 92t-80 66.5t-97 27.5h-6q-31 0 -53.5 22.5t-22.5 53.5t22.5 53.5t53.5 22.5h8q39 2 73.5 23.5 t61.5 54.5t41 72.5t14 80.5t-15 77t-43 63.5t-63.5 43t-76.5 15.5t-78 -15.5t-63.5 -43t-42 -63.5t-15.5 -75q0 -33 -22.5 -55t-55.5 -22t-55.5 22.5t-22.5 54.5v4q0 72 28 135.5t76 111.5t112.5 76t138.5 28t138 -28t113.5 -76t77 -111.5t27.5 -135.5v-2q0 -41 -9 -84 t-25.5 -83.5t-40 -76.5t-52.5 -61q41 -27 75 -68.5t57.5 -91t36.5 -104.5t13 -106v-2q0 -84 -32.5 -158t-88 -129t-130 -88t-160.5 -33q-84 0 -159 33t-130 88t-88 129t-33 158z" />
<glyph unicode="&#xb4;" horiz-adv-x="309" d="M35 1137q0 18 12 41l84 145q20 37 66 37q35 0 56 -22.5t21 -53.5q0 -27 -10 -41l-84 -145q-23 -37 -65 -37q-35 0 -57.5 22.5t-22.5 53.5z" />
<glyph unicode="&#xb5;" horiz-adv-x="847" d="M74 -217v577v578q0 33 22.5 55.5t55.5 22.5q31 0 54 -22.5t23 -55.5v-578q0 -43 16.5 -81.5t46.5 -68.5t68.5 -46.5t83.5 -16.5q43 0 83 16.5t69 46.5t46 68.5t17 81.5v578q0 33 23 55.5t55 22.5q31 0 54.5 -22.5t23.5 -55.5v-578q0 -76 -29.5 -143t-80 -117.5t-118 -79 t-143.5 -28.5q-59 0 -114.5 17.5t-100.5 49.5v-276q0 -33 -23.5 -55.5t-53.5 -22.5q-33 0 -55.5 22.5t-22.5 55.5z" />
<glyph unicode="&#xb7;" horiz-adv-x="262" d="M53 549q0 33 22.5 55.5t55.5 22.5q31 0 54.5 -22.5t23.5 -55.5t-22.5 -55.5t-55.5 -22.5q-31 0 -54.5 22.5t-23.5 55.5z" />
<glyph unicode="&#xb8;" horiz-adv-x="409" d="M39 -246q0 33 22.5 47.5t50 20.5t51 11t23.5 20q0 18 -18 47.5t-18 64.5v35h155v-35q0 -14 8.5 -33.5t18.5 -43t18 -48t8 -49.5q0 -23 -10 -44t-37.5 -36.5t-75 -25t-118.5 -9.5q-33 0 -55.5 22.5t-22.5 55.5z" />
<glyph unicode="&#xb9;" horiz-adv-x="444" d="M6 1151q0 20 9.5 39.5t29.5 30.5l201 116q20 14 45 15q31 0 54.5 -22.5t23.5 -55.5v-1196q0 -33 -22.5 -55.5t-55.5 -22.5q-31 0 -54.5 22.5t-23.5 55.5v1059l-88 -52q-23 -12 -41 -12q-29 0 -53.5 21.5t-24.5 56.5z" />
<glyph unicode="&#xba;" d="M56.8916 907.721v201.354q0 51.874 19.7871 97.9473q19.7871 46.0723 54.585 80.541q34.7979 34.4697 80.1719 53.9219q45.374 19.4531 98.5938 19.4531q51.8555 0 97.9121 -19.4531q46.0557 -19.4521 80.1719 -53.9219q34.1152 -34.4688 54.585 -80.541 q20.4688 -46.0732 20.4688 -97.9473v-201.354q0 -51.875 -19.7871 -97.6064q-19.7871 -45.7305 -54.585 -80.2002q-34.7979 -34.4688 -80.8535 -53.9219q-46.0566 -19.4531 -97.9121 -19.4531t-97.9111 19.4531q-46.0566 19.4531 -80.1719 53.9219 q-34.1162 34.4697 -54.585 80.2002q-20.4697 45.7314 -20.4697 97.6064zM163.332 907.721q0 -29.3506 11.9404 -55.6289t31.3867 -46.7549t46.7383 -31.7393q27.293 -11.2617 56.6318 -11.2617q30.7041 0 57.3145 11.2617q26.6104 11.2627 46.7383 31.7393t31.3867 46.7549 q11.2578 26.2783 11.2578 55.6289v201.354q0 29.3496 -11.9404 55.9697t-31.3867 47.0967q-19.4453 20.4766 -46.7383 31.3975q-27.292 10.9209 -56.6318 10.9209q-30.7041 0 -57.3145 -10.9209q-26.6094 -10.9209 -46.7383 -31.3975q-20.1279 -20.4766 -31.3857 -47.0967 q-11.2588 -26.6201 -11.2588 -55.9697v-201.354z" />
<glyph unicode="&#xbb;" horiz-adv-x="851" d="M70 125q0 29 18 51l250 324l-250 325q-18 20 -18 49q0 31 23.5 54.5t58.5 23.5q16 0 31.5 -6t25.5 -20l287 -375q18 -25 18 -53q0 -23 -16 -45l-289 -377q-23 -29 -57 -29q-35 0 -58.5 24.5t-23.5 53.5zM377 125q0 29 18 51l250 324l-250 325q-18 20 -18 49 q0 31 23.5 54.5t58.5 23.5q16 0 31.5 -6t25.5 -20l287 -375q18 -25 18 -53q0 -23 -16 -45l-289 -377q-23 -29 -57 -29q-35 0 -58.5 24.5t-23.5 53.5z" />
<glyph unicode="&#xbc;" horiz-adv-x="2402" d="M1534 283q0 20 12 43l566 989q10 16 28.5 25.5t36.5 9.5q33 0 56.5 -23.5t23.5 -52.5v-914h21q33 0 55 -22.5t22 -54.5q0 -33 -22.5 -55.5t-54.5 -22.5h-21v-127q0 -33 -22.5 -55.5t-55.5 -22.5t-55.5 22.5t-22.5 55.5v127h-489q-31 0 -54.5 24.5t-23.5 53.5zM1747 360 h354v619zM450 78q0 29 19 51l915 1198q10 14 25.5 20.5t31.5 6.5q35 0 57.5 -23.5t22.5 -54.5q0 -12 -3 -25.5t-13 -23.5l-916 -1198q-23 -29 -57 -29q-35 0 -58.5 24.5t-23.5 53.5zM6 1151q0 20 9.5 39.5t29.5 30.5l201 116q20 14 45 15q31 0 54.5 -22.5t23.5 -55.5v-1196 q0 -33 -22.5 -55.5t-55.5 -22.5q-31 0 -54.5 22.5t-23.5 55.5v1059l-88 -52q-23 -12 -41 -12q-29 0 -53.5 21.5t-24.5 56.5z" />
<glyph unicode="&#xbd;" horiz-adv-x="2467" d="M1583 78q0 29 19 51l590 700q25 25 41 71t16 87v2q0 51 -19.5 97.5t-54.5 81t-82 54t-100 19.5q-51 0 -97 -19.5t-81 -53t-55.5 -77.5t-20.5 -96q0 -33 -22.5 -55t-55.5 -22t-55.5 22.5t-22.5 54.5q0 82 33 155t89 128t131 87t157 32q86 0 160.5 -33t130 -88t88.5 -129 t33 -158v-2q0 -74 -25 -139.5t-70 -118.5h2l-477 -573h512q33 0 55.5 -22.5t22.5 -55.5t-22.5 -55.5t-55.5 -22.5h-686q-33 0 -55.5 22.5t-22.5 55.5zM450 78q0 29 19 51l915 1198q10 14 25.5 20.5t31.5 6.5q35 0 57.5 -23.5t22.5 -54.5q0 -12 -3 -25.5t-13 -23.5 l-916 -1198q-23 -29 -57 -29q-35 0 -58.5 24.5t-23.5 53.5zM6 1151q0 20 9.5 39.5t29.5 30.5l201 116q20 14 45 15q31 0 54.5 -22.5t23.5 -55.5v-1196q0 -33 -22.5 -55.5t-55.5 -22.5q-31 0 -54.5 22.5t-23.5 55.5v1059l-88 -52q-23 -12 -41 -12q-29 0 -53.5 21.5 t-24.5 56.5z" />
<glyph unicode="&#xbe;" horiz-adv-x="2871" d="M2003 283q0 20 12 43l566 989q10 16 28.5 25.5t36.5 9.5q33 0 56.5 -23.5t23.5 -52.5v-914h21q33 0 55 -22.5t22 -54.5q0 -33 -22.5 -55.5t-54.5 -22.5h-21v-127q0 -33 -22.5 -55.5t-55.5 -22.5t-55.5 22.5t-22.5 55.5v127h-489q-31 0 -54.5 24.5t-23.5 53.5zM2216 360 h354v619zM919 78q0 29 19 51l915 1198q10 14 25.5 20.5t31.5 6.5q35 0 57.5 -23.5t22.5 -54.5q0 -12 -3 -25.5t-13 -23.5l-916 -1198q-23 -29 -57 -29q-35 0 -58.5 24.5t-23.5 53.5zM43 365q0 33 22.5 55t55.5 22t55.5 -22.5t22.5 -54.5q0 -53 20.5 -98.5t54 -80t79.5 -54 t100 -19.5q53 0 100 19.5t82 54t54.5 79.5t19.5 99v2q0 51 -19.5 102t-53.5 92t-80 66.5t-97 27.5h-6q-31 0 -53.5 22.5t-22.5 53.5t22.5 53.5t53.5 22.5h8q39 2 73.5 23.5t61.5 54.5t41 72.5t14 80.5t-15 77t-43 63.5t-63.5 43t-76.5 15.5t-78 -15.5t-63.5 -43t-42 -63.5 t-15.5 -75q0 -33 -22.5 -55t-55.5 -22t-55.5 22.5t-22.5 54.5v4q0 72 28 135.5t76 111.5t112.5 76t138.5 28t138 -28t113.5 -76t77 -111.5t27.5 -135.5v-2q0 -41 -9 -84t-25.5 -83.5t-40 -76.5t-52.5 -61q41 -27 75 -68.5t57.5 -91t36.5 -104.5t13 -106v-2q0 -84 -32.5 -158 t-88 -129t-130 -88t-160.5 -33q-84 0 -159 33t-130 88t-88 129t-33 158z" />
<glyph unicode="&#xbf;" horiz-adv-x="1007" d="M978.001 336.062q0 -15.999 -5.99902 -32.998q-26.998 -67.9961 -72.4961 -122.992q-45.4971 -54.9971 -103.993 -94.9941q-58.4971 -39.998 -127.992 -62.4961q-69.4961 -22.499 -145.491 -22.499q-99.9941 0 -190.488 37.998q-90.4941 37.9971 -155.99 104.493 t-104.494 154.49q-38.9971 87.9951 -38.9971 188.989v1.99902q0 85.9951 33.9971 170.99q33.998 84.9941 94.4951 152.49q60.4961 67.4961 145.49 109.493q84.9951 41.998 188.989 41.998v2q0 32.998 23.498 55.4961q23.499 22.499 54.4971 22.499q32.998 0 55.4961 -22.499 q22.499 -22.498 22.499 -55.4961v-69.9961q0 -32.998 -23.499 -55.4961q-23.498 -22.499 -54.4961 -22.499q-6 0 -11.999 1q-6 1 -13 1q-79.9951 0 -145.491 -28.498q-65.4951 -28.499 -113.493 -75.4961q-47.9961 -46.9971 -74.4951 -106.493 q-26.498 -59.4961 -26.498 -120.493v-1.99902q0 -67.9961 25.498 -128.492q25.499 -60.4971 70.4961 -104.494t106.493 -70.4951q61.4961 -26.499 131.492 -26.499q105.993 0 187.988 60.4961q81.9951 60.4971 120.993 152.491q9.99902 22.998 29.498 33.998 q19.499 10.999 42.4971 10.999q34.998 0 54.9971 -24.498q19.998 -24.499 19.998 -53.4971zM651.021 1282v-58.9961q0 -32.998 -23.499 -55.4971q-23.498 -22.499 -54.4961 -22.499q-32.998 0 -55.4971 22.499q-22.498 22.499 -22.498 55.4971v58.9961 q0 32.998 23.498 55.4961q23.499 22.499 54.4971 22.499q32.998 0 55.4961 -22.499q22.499 -22.498 22.499 -55.4961z" />
<glyph unicode="&#xc0;" horiz-adv-x="1265" d="M31 74q0 16 6 32l516 1207q20 47 72 47q14 0 30 -6q29 -12 41 -41l516 -1207q6 -16 7 -32q0 -27 -20.5 -51.5t-55.5 -24.5q-51 0 -72 47l-145 340h-602l-146 -340q-10 -23 -29.5 -35t-42.5 -12q-35 0 -55 24.5t-20 51.5zM389 541h469l-233 546zM445 1714q0 31 22.5 53.5 t57.5 22.5q43 0 65 -37l84 -145q10 -18 10 -41q0 -31 -21.5 -53.5t-55.5 -22.5q-45 0 -66 37l-84 145q-12 18 -12 41z" />
<glyph unicode="&#xc1;" horiz-adv-x="1265" d="M31 74q0 16 6 32l516 1207q20 47 72 47q14 0 30 -6q29 -12 41 -41l516 -1207q6 -16 7 -32q0 -27 -20.5 -51.5t-55.5 -24.5q-51 0 -72 47l-145 340h-602l-146 -340q-10 -23 -29.5 -35t-42.5 -12q-35 0 -55 24.5t-20 51.5zM389 541h469l-233 546zM565 1567q0 18 12 41 l84 145q20 37 66 37q35 0 56 -22.5t21 -53.5q0 -27 -10 -41l-84 -145q-23 -37 -65 -37q-35 0 -57.5 22.5t-22.5 53.5z" />
<glyph unicode="&#xc2;" horiz-adv-x="1265" d="M31 74q0 16 6 32l516 1207q20 47 72 47q14 0 30 -6q29 -12 41 -41l516 -1207q6 -16 7 -32q0 -27 -20.5 -51.5t-55.5 -24.5q-51 0 -72 47l-145 340h-602l-146 -340q-10 -23 -29.5 -35t-42.5 -12q-35 0 -55 24.5t-20 51.5zM389 541h469l-233 546zM414 1526q0 39 35 63 l141 103q16 10 37 10q25 0 45 -15l135 -98q35 -25 35 -63q0 -33 -25.5 -55.5t-56.5 -22.5q-27 0 -43 14l-90 64l-88 -64q-20 -14 -43 -14q-33 0 -57.5 22.5t-24.5 55.5z" />
<glyph unicode="&#xc3;" horiz-adv-x="1265" d="M31 74q0 16 6 32l516 1207q20 47 72 47q14 0 30 -6q29 -12 41 -41l516 -1207q6 -16 7 -32q0 -27 -20.5 -51.5t-55.5 -24.5q-51 0 -72 47l-145 340h-602l-146 -340q-10 -23 -29.5 -35t-42.5 -12q-35 0 -55 24.5t-20 51.5zM389 541h469l-233 546zM352 1605q0 31 21.5 51.5 t51.5 31.5t62.5 16.5t57.5 5.5q29 0 63.5 -12.5t79.5 -12.5q37 0 58.5 4t34 8.5t19.5 8.5t13 4q31 0 54.5 -22.5t23.5 -55.5q0 -31 -21.5 -50.5t-51 -30.5t-62.5 -16t-55 -5q-51 0 -115 20q-10 2 -31 2q-37 0 -58.5 -3t-33.5 -8t-18 -8t-13 -3q-31 0 -55.5 22t-24.5 53z" />
<glyph unicode="&#xc4;" horiz-adv-x="1265" d="M31 74q0 16 6 32l516 1207q20 47 72 47q14 0 30 -6q29 -12 41 -41l516 -1207q6 -16 7 -32q0 -27 -20.5 -51.5t-55.5 -24.5q-51 0 -72 47l-145 340h-602l-146 -340q-10 -23 -29.5 -35t-42.5 -12q-35 0 -55 24.5t-20 51.5zM389 541h469l-233 546zM440 1612q0 33 23 55.5 t55 22.5q31 0 54.5 -22.5t23.5 -55.5t-22.5 -55.5t-55.5 -22.5q-31 0 -54.5 22.5t-23.5 55.5zM666 1612q0 33 22.5 55.5t55.5 22.5q31 0 54 -22.5t23 -55.5t-22.5 -55.5t-54.5 -22.5q-31 0 -54.5 22.5t-23.5 55.5z" />
<glyph unicode="&#xc5;" horiz-adv-x="1265" d="M31 74q0 16 6 32l516 1207q20 47 72 47q14 0 30 -6q29 -12 41 -41l516 -1207q6 -16 7 -32q0 -27 -20.5 -51.5t-55.5 -24.5q-51 0 -72 47l-145 340h-602l-146 -340q-10 -23 -29.5 -35t-42.5 -12q-35 0 -55 24.5t-20 51.5zM389 541h469l-233 546zM442 1622q0 37 14.5 70.5 t39 58t57.5 39t69 14.5q76 0 129.5 -53.5t53.5 -128.5q0 -37 -14.5 -70t-39 -57.5t-58.5 -39t-71 -14.5t-69.5 14.5t-57 39t-39 57.5t-14.5 70zM551 1622q0 -29 21.5 -50.5t49.5 -21.5q29 0 50.5 21.5t21.5 50.5t-21.5 50t-50.5 21t-50 -21t-21 -50z" />
<glyph unicode="&#xc6;" horiz-adv-x="1384" d="M33 74q0 16 6 32l516 1199q20 47 72 47h633q33 0 55 -22.5t22 -55.5q0 -31 -22.5 -54.5t-54.5 -23.5h-478v-463h242q33 0 55.5 -22.5t22.5 -55.5q0 -31 -22.5 -54t-55.5 -23h-242v-422h478q33 0 55 -22.5t22 -55.5q0 -31 -22.5 -54.5t-54.5 -23.5h-555q-31 0 -54.5 22.5 t-23.5 55.5v307h-301l-146 -340q-10 -23 -29.5 -35t-41.5 -12q-35 0 -55.5 24.5t-20.5 51.5zM391 541h236v546z" />
<glyph unicode="&#xc7;" horiz-adv-x="1056" d="M57 442v469q0 100 39 188.5t104.5 155t154.5 104.5t192 38q74 0 142.5 -21.5t126.5 -61.5t103.5 -94.5t73.5 -119.5q6 -6 8.5 -17.5t2.5 -21.5q0 -29 -20.5 -53.5t-57.5 -24.5q-47 0 -70 45q-37 92 -121 152.5t-188 60.5q-70 0 -131.5 -26.5t-106.5 -70.5t-70.5 -104.5 t-25.5 -128.5v-469q0 -68 26.5 -128t71.5 -104t106.5 -70.5t129.5 -26.5q111 0 192.5 60t118.5 155q8 23 27.5 33t40.5 10q35 0 56.5 -24.5t21.5 -53.5q0 -16 -7 -31q-27 -68 -71.5 -123t-103 -96t-129 -63.5t-146.5 -22.5q-100 0 -189.5 38t-156 104.5t-105.5 154.5 t-39 188zM309 -228q0 33 22.5 47.5t50 20.5t51 11t23.5 20q0 18 -18 47.5t-18 64.5v35h155v-35q0 -14 8.5 -33.5t18.5 -43t18 -48t8 -49.5q0 -23 -10 -44t-37.5 -36.5t-75 -25t-118.5 -9.5q-33 0 -55.5 22.5t-22.5 55.5z" />
<glyph unicode="&#xc8;" horiz-adv-x="1081" d="M74 78v1196q0 33 22.5 55.5t55.5 22.5h821q33 0 55.5 -22.5t22.5 -55.5q0 -31 -22.5 -54.5t-55.5 -23.5h-744v-463h242q33 0 55.5 -22.5t22.5 -55.5q0 -31 -22.5 -54t-55.5 -23h-242v-422h744q33 0 55.5 -22.5t22.5 -55.5q0 -31 -22.5 -54.5t-55.5 -23.5h-815h-6 q-31 0 -54.5 22.5t-23.5 55.5zM418 1714q0 31 22.5 53.5t57.5 22.5q43 0 65 -37l84 -145q10 -18 10 -41q0 -31 -21.5 -53.5t-55.5 -22.5q-45 0 -66 37l-84 145q-12 18 -12 41z" />
<glyph unicode="&#xc9;" horiz-adv-x="1081" d="M74 78v1196q0 33 22.5 55.5t55.5 22.5h821q33 0 55.5 -22.5t22.5 -55.5q0 -31 -22.5 -54.5t-55.5 -23.5h-744v-463h242q33 0 55.5 -22.5t22.5 -55.5q0 -31 -22.5 -54t-55.5 -23h-242v-422h744q33 0 55.5 -22.5t22.5 -55.5q0 -31 -22.5 -54.5t-55.5 -23.5h-815h-6 q-31 0 -54.5 22.5t-23.5 55.5zM479 1567q0 18 12 41l84 145q20 37 66 37q35 0 56 -22.5t21 -53.5q0 -27 -10 -41l-84 -145q-23 -37 -65 -37q-35 0 -57.5 22.5t-22.5 53.5z" />
<glyph unicode="&#xca;" horiz-adv-x="1081" d="M74 78v1196q0 33 22.5 55.5t55.5 22.5h821q33 0 55.5 -22.5t22.5 -55.5q0 -31 -22.5 -54.5t-55.5 -23.5h-744v-463h242q33 0 55.5 -22.5t22.5 -55.5q0 -31 -22.5 -54t-55.5 -23h-242v-422h744q33 0 55.5 -22.5t22.5 -55.5q0 -31 -22.5 -54.5t-55.5 -23.5h-815h-6 q-31 0 -54.5 22.5t-23.5 55.5zM342 1526q0 39 35 63l141 103q16 10 37 10q25 0 45 -15l135 -98q35 -25 35 -63q0 -33 -25.5 -55.5t-56.5 -22.5q-27 0 -43 14l-90 64l-88 -64q-20 -14 -43 -14q-33 0 -57.5 22.5t-24.5 55.5z" />
<glyph unicode="&#xcb;" horiz-adv-x="1081" d="M74 78v1196q0 33 22.5 55.5t55.5 22.5h821q33 0 55.5 -22.5t22.5 -55.5q0 -31 -22.5 -54.5t-55.5 -23.5h-744v-463h242q33 0 55.5 -22.5t22.5 -55.5q0 -31 -22.5 -54t-55.5 -23h-242v-422h744q33 0 55.5 -22.5t22.5 -55.5q0 -31 -22.5 -54.5t-55.5 -23.5h-815h-6 q-31 0 -54.5 22.5t-23.5 55.5zM368 1610q0 33 23 55.5t55 22.5q31 0 54.5 -22.5t23.5 -55.5t-22.5 -55.5t-55.5 -22.5q-31 0 -54.5 22.5t-23.5 55.5zM594 1610q0 33 22.5 55.5t55.5 22.5q31 0 54 -22.5t23 -55.5t-22.5 -55.5t-54.5 -22.5q-31 0 -54.5 22.5t-23.5 55.5z" />
<glyph unicode="&#xcc;" horiz-adv-x="309" d="M74 78v1196q0 33 22.5 55.5t55.5 22.5q31 0 54 -22.5t23 -55.5v-1196q0 -33 -22.5 -55.5t-54.5 -22.5q-31 0 -54.5 22.5t-23.5 55.5zM-12 1718q0 31 22.5 53.5t57.5 22.5q43 0 65 -37l84 -145q10 -18 10 -41q0 -31 -21.5 -53.5t-55.5 -22.5q-45 0 -66 37l-84 145 q-12 18 -12 41z" />
<glyph unicode="&#xcd;" horiz-adv-x="309" d="M74 78v1196q0 33 22.5 55.5t55.5 22.5q31 0 54 -22.5t23 -55.5v-1196q0 -33 -22.5 -55.5t-54.5 -22.5q-31 0 -54.5 22.5t-23.5 55.5zM80 1569q0 18 12 41l84 145q20 37 66 37q35 0 56 -22.5t21 -53.5q0 -27 -10 -41l-84 -145q-23 -37 -65 -37q-35 0 -57.5 22.5 t-22.5 53.5z" />
<glyph unicode="&#xce;" horiz-adv-x="309" d="M74 78v1196q0 33 22.5 55.5t55.5 22.5q31 0 54 -22.5t23 -55.5v-1196q0 -33 -22.5 -55.5t-54.5 -22.5q-31 0 -54.5 22.5t-23.5 55.5zM-61 1526q0 39 35 63l141 103q16 10 37 10q25 0 45 -15l135 -98q35 -25 35 -63q0 -33 -25.5 -55.5t-56.5 -22.5q-27 0 -43 14l-90 64 l-88 -64q-20 -14 -43 -14q-33 0 -57.5 22.5t-24.5 55.5z" />
<glyph unicode="&#xcf;" horiz-adv-x="309" d="M74 78v1196q0 33 22.5 55.5t55.5 22.5q31 0 54 -22.5t23 -55.5v-1196q0 -33 -22.5 -55.5t-54.5 -22.5q-31 0 -54.5 22.5t-23.5 55.5zM-35 1610q0 33 23 55.5t55 22.5q31 0 54.5 -22.5t23.5 -55.5t-22.5 -55.5t-55.5 -22.5q-31 0 -54.5 22.5t-23.5 55.5zM191 1610 q0 33 22.5 55.5t55.5 22.5q31 0 54 -22.5t23 -55.5t-22.5 -55.5t-54.5 -22.5q-31 0 -54.5 22.5t-23.5 55.5z" />
<glyph unicode="&#xd0;" horiz-adv-x="1208" d="M49 657q0 31 22.5 54.5t55.5 23.5h45v539q0 33 22.5 55.5t55.5 22.5h409q100 0 190.5 -38t156 -103.5t104.5 -152.5t39 -188v-389q0 -100 -39 -187t-104.5 -152.5t-154.5 -103.5t-189 -38h-412q-31 0 -54.5 22.5t-23.5 55.5v502h-45q-33 0 -55.5 22t-22.5 55zM328 156 h334q70 0 130 25.5t105 69.5t70.5 103.5t25.5 126.5v389q0 68 -25.5 127.5t-70.5 103.5t-106.5 69.5t-131.5 25.5h-331v-461h239q33 0 55.5 -22.5t22.5 -55.5q0 -31 -22.5 -54t-55.5 -23h-239v-424z" />
<glyph unicode="&#xd1;" horiz-adv-x="1107" d="M66 78v796q0 100 38.5 188.5t104 154t155 104.5t189.5 39t189 -39t156 -104.5t105.5 -153.5t38.5 -189v-796q0 -33 -22.5 -55.5t-54.5 -22.5q-31 0 -54.5 22.5t-23.5 55.5v796q0 68 -26.5 128.5t-72 104.5t-106.5 70.5t-129 26.5q-70 0 -130.5 -26.5t-105.5 -70.5 t-70.5 -104.5t-25.5 -128.5v-796q0 -33 -22.5 -55.5t-55.5 -22.5q-31 0 -54 22.5t-23 55.5zM251 1607q0 31 21.5 51.5t51.5 31.5t62.5 16.5t57.5 5.5q29 0 63.5 -12.5t79.5 -12.5q37 0 58.5 4t34 8.5t19.5 8.5t13 4q31 0 54.5 -22.5t23.5 -55.5q0 -31 -21.5 -50.5t-51 -30.5 t-62.5 -16t-55 -5q-51 0 -115 20q-10 2 -31 2q-37 0 -58.5 -3t-33.5 -8t-18 -8t-13 -3q-31 0 -55.5 22t-24.5 53z" />
<glyph unicode="&#xd2;" horiz-adv-x="1091" d="M59 442v467q0 100 39 188.5t104.5 155t154.5 104.5t192 38q100 0 188 -38t154.5 -104.5t105.5 -154.5t39 -189v-467q0 -100 -39 -188t-104.5 -154.5t-154.5 -104.5t-189 -38t-189.5 38t-156 104.5t-105.5 154.5t-39 188zM215 442q0 -68 26.5 -128t71.5 -104t106.5 -70.5 t129.5 -26.5q70 0 130 26.5t105 70.5t71 104.5t26 127.5v467q0 68 -27 128.5t-72 104.5t-105.5 70.5t-127.5 26.5q-70 0 -131.5 -26.5t-106.5 -70.5t-70.5 -104.5t-25.5 -128.5v-467zM375 1714q0 31 22.5 53.5t57.5 22.5q43 0 65 -37l84 -145q10 -18 10 -41 q0 -31 -21.5 -53.5t-55.5 -22.5q-45 0 -66 37l-84 145q-12 18 -12 41z" />
<glyph unicode="&#xd3;" horiz-adv-x="1091" d="M59 442v467q0 100 39 188.5t104.5 155t154.5 104.5t192 38q100 0 188 -38t154.5 -104.5t105.5 -154.5t39 -189v-467q0 -100 -39 -188t-104.5 -154.5t-154.5 -104.5t-189 -38t-189.5 38t-156 104.5t-105.5 154.5t-39 188zM215 442q0 -68 26.5 -128t71.5 -104t106.5 -70.5 t129.5 -26.5q70 0 130 26.5t105 70.5t71 104.5t26 127.5v467q0 68 -27 128.5t-72 104.5t-105.5 70.5t-127.5 26.5q-70 0 -131.5 -26.5t-106.5 -70.5t-70.5 -104.5t-25.5 -128.5v-467zM471 1569q0 18 12 41l84 145q20 37 66 37q35 0 56 -22.5t21 -53.5q0 -27 -10 -41 l-84 -145q-23 -37 -65 -37q-35 0 -57.5 22.5t-22.5 53.5z" />
<glyph unicode="&#xd4;" horiz-adv-x="1091" d="M59 442v467q0 100 39 188.5t104.5 155t154.5 104.5t192 38q100 0 188 -38t154.5 -104.5t105.5 -154.5t39 -189v-467q0 -100 -39 -188t-104.5 -154.5t-154.5 -104.5t-189 -38t-189.5 38t-156 104.5t-105.5 154.5t-39 188zM215 442q0 -68 26.5 -128t71.5 -104t106.5 -70.5 t129.5 -26.5q70 0 130 26.5t105 70.5t71 104.5t26 127.5v467q0 68 -27 128.5t-72 104.5t-105.5 70.5t-127.5 26.5q-70 0 -131.5 -26.5t-106.5 -70.5t-70.5 -104.5t-25.5 -128.5v-467zM328 1526q0 39 35 63l141 103q16 10 37 10q25 0 45 -15l135 -98q35 -25 35 -63 q0 -33 -25.5 -55.5t-56.5 -22.5q-27 0 -43 14l-90 64l-88 -64q-20 -14 -43 -14q-33 0 -57.5 22.5t-24.5 55.5z" />
<glyph unicode="&#xd5;" horiz-adv-x="1091" d="M59 442v467q0 100 39 188.5t104.5 155t154.5 104.5t192 38q100 0 188 -38t154.5 -104.5t105.5 -154.5t39 -189v-467q0 -100 -39 -188t-104.5 -154.5t-154.5 -104.5t-189 -38t-189.5 38t-156 104.5t-105.5 154.5t-39 188zM215 442q0 -68 26.5 -128t71.5 -104t106.5 -70.5 t129.5 -26.5q70 0 130 26.5t105 70.5t71 104.5t26 127.5v467q0 68 -27 128.5t-72 104.5t-105.5 70.5t-127.5 26.5q-70 0 -131.5 -26.5t-106.5 -70.5t-70.5 -104.5t-25.5 -128.5v-467zM264 1607q0 31 21.5 51.5t51.5 31.5t62.5 16.5t57.5 5.5q29 0 63.5 -12.5t79.5 -12.5 q37 0 58.5 4t34 8.5t19.5 8.5t13 4q31 0 54.5 -22.5t23.5 -55.5q0 -31 -21.5 -50.5t-51 -30.5t-62.5 -16t-55 -5q-51 0 -115 20q-10 2 -31 2q-37 0 -58.5 -3t-33.5 -8t-18 -8t-13 -3q-31 0 -55.5 22t-24.5 53z" />
<glyph unicode="&#xd6;" horiz-adv-x="1091" d="M59 442v467q0 100 39 188.5t104.5 155t154.5 104.5t192 38q100 0 188 -38t154.5 -104.5t105.5 -154.5t39 -189v-467q0 -100 -39 -188t-104.5 -154.5t-154.5 -104.5t-189 -38t-189.5 38t-156 104.5t-105.5 154.5t-39 188zM215 442q0 -68 26.5 -128t71.5 -104t106.5 -70.5 t129.5 -26.5q70 0 130 26.5t105 70.5t71 104.5t26 127.5v467q0 68 -27 128.5t-72 104.5t-105.5 70.5t-127.5 26.5q-70 0 -131.5 -26.5t-106.5 -70.5t-70.5 -104.5t-25.5 -128.5v-467zM352 1610q0 33 23 55.5t55 22.5q31 0 54.5 -22.5t23.5 -55.5t-22.5 -55.5t-55.5 -22.5 q-31 0 -54.5 22.5t-23.5 55.5zM578 1610q0 33 22.5 55.5t55.5 22.5q31 0 54 -22.5t23 -55.5t-22.5 -55.5t-54.5 -22.5q-31 0 -54.5 22.5t-23.5 55.5z" />
<glyph unicode="&#xd7;" horiz-adv-x="692" d="M70 377q0 33 22 55l146 146l-144 143q-23 20 -22 55q0 31 22.5 53.5t52.5 22.5q31 0 58 -23l143 -143l144 143q23 23 55 23q31 0 53.5 -22.5t22.5 -53.5q0 -33 -23 -55l-143 -143l145 -146q23 -27 23 -55q0 -31 -21.5 -54.5t-56.5 -23.5q-33 0 -55 23l-144 145l-145 -145 q-23 -23 -56 -23q-31 0 -54 21.5t-23 56.5z" />
<glyph unicode="&#xd8;" horiz-adv-x="1091" d="M59 442v467q0 100 39 188.5t104.5 155t154.5 104.5t192 38q100 0 188 -38t154.5 -104.5t105.5 -154.5t39 -189v-467q0 -100 -39 -188t-104.5 -154.5t-154.5 -104.5t-189 -38t-189.5 38t-156 104.5t-105.5 154.5t-39 188zM215 442q0 -68 26.5 -128t71.5 -104t106.5 -70.5 t129.5 -26.5q70 0 130 26.5t105 70.5t71 104.5t26 127.5v467q0 68 -27 128.5t-72 104.5t-105.5 70.5t-127.5 26.5q-70 0 -131.5 -26.5t-106.5 -70.5t-70.5 -104.5t-25.5 -128.5v-467zM4 78q0 29 19 51l915 1198q10 14 25.5 20.5t31.5 6.5q35 0 57.5 -23.5t22.5 -54.5 q0 -12 -3 -25.5t-13 -23.5l-916 -1198q-23 -29 -57 -29q-35 0 -58.5 24.5t-23.5 53.5z" />
<glyph unicode="&#xd9;" horiz-adv-x="1107" d="M66 442v832q0 33 22.5 55.5t54.5 22.5q31 0 54.5 -22.5t23.5 -55.5v-832q0 -68 26.5 -128t72 -104t106.5 -70.5t129 -26.5q70 0 130 26.5t105.5 70.5t71 104.5t25.5 127.5v832q0 33 22.5 55.5t55.5 22.5q31 0 54 -22.5t23 -55.5v-832q0 -100 -38.5 -188t-104 -154.5 t-155 -104.5t-189.5 -38t-189.5 38t-156 104.5t-105 154.5t-38.5 188zM389 1714q0 31 22.5 53.5t57.5 22.5q43 0 65 -37l84 -145q10 -18 10 -41q0 -31 -21.5 -53.5t-55.5 -22.5q-45 0 -66 37l-84 145q-12 18 -12 41z" />
<glyph unicode="&#xda;" horiz-adv-x="1107" d="M66 442v832q0 33 22.5 55.5t54.5 22.5q31 0 54.5 -22.5t23.5 -55.5v-832q0 -68 26.5 -128t72 -104t106.5 -70.5t129 -26.5q70 0 130 26.5t105.5 70.5t71 104.5t25.5 127.5v832q0 33 22.5 55.5t55.5 22.5q31 0 54 -22.5t23 -55.5v-832q0 -100 -38.5 -188t-104 -154.5 t-155 -104.5t-189.5 -38t-189.5 38t-156 104.5t-105 154.5t-38.5 188zM475 1569q0 18 12 41l84 145q20 37 66 37q35 0 56 -22.5t21 -53.5q0 -27 -10 -41l-84 -145q-23 -37 -65 -37q-35 0 -57.5 22.5t-22.5 53.5z" />
<glyph unicode="&#xdb;" horiz-adv-x="1107" d="M66 442v832q0 33 22.5 55.5t54.5 22.5q31 0 54.5 -22.5t23.5 -55.5v-832q0 -68 26.5 -128t72 -104t106.5 -70.5t129 -26.5q70 0 130 26.5t105.5 70.5t71 104.5t25.5 127.5v832q0 33 22.5 55.5t55.5 22.5q31 0 54 -22.5t23 -55.5v-832q0 -100 -38.5 -188t-104 -154.5 t-155 -104.5t-189.5 -38t-189.5 38t-156 104.5t-105 154.5t-38.5 188zM336 1522q0 39 35 63l141 103q16 10 37 10q25 0 45 -15l135 -98q35 -25 35 -63q0 -33 -25.5 -55.5t-56.5 -22.5q-27 0 -43 14l-90 64l-88 -64q-20 -14 -43 -14q-33 0 -57.5 22.5t-24.5 55.5z" />
<glyph unicode="&#xdc;" horiz-adv-x="1107" d="M66 442v832q0 33 22.5 55.5t54.5 22.5q31 0 54.5 -22.5t23.5 -55.5v-832q0 -68 26.5 -128t72 -104t106.5 -70.5t129 -26.5q70 0 130 26.5t105.5 70.5t71 104.5t25.5 127.5v832q0 33 22.5 55.5t55.5 22.5q31 0 54 -22.5t23 -55.5v-832q0 -100 -38.5 -188t-104 -154.5 t-155 -104.5t-189.5 -38t-189.5 38t-156 104.5t-105 154.5t-38.5 188zM360 1610q0 33 23 55.5t55 22.5q31 0 54.5 -22.5t23.5 -55.5t-22.5 -55.5t-55.5 -22.5q-31 0 -54.5 22.5t-23.5 55.5zM586 1610q0 33 22.5 55.5t55.5 22.5q31 0 54 -22.5t23 -55.5t-22.5 -55.5 t-54.5 -22.5q-31 0 -54.5 22.5t-23.5 55.5z" />
<glyph unicode="&#xdd;" horiz-adv-x="1058" d="M41 874v400q0 33 22.5 55.5t55.5 22.5q31 0 54.5 -22.5t23.5 -55.5v-400q0 -68 26.5 -128t71.5 -104t106.5 -70.5t128.5 -26.5q70 0 130.5 26.5t105.5 70.5t70.5 104.5t25.5 127.5v400q0 33 22.5 55.5t55.5 22.5q31 0 54.5 -22.5t23.5 -55.5v-400q0 -90 -32 -170.5 t-87 -144t-130 -106.5t-161 -58v-317q0 -33 -22.5 -55.5t-55.5 -22.5q-31 0 -54 22.5t-23 55.5v317q-86 14 -162 57.5t-131.5 107t-87 144t-31.5 170.5zM455 1571q0 18 12 41l84 145q20 37 66 37q35 0 56 -22.5t21 -53.5q0 -27 -10 -41l-84 -145q-23 -37 -65 -37 q-35 0 -57.5 22.5t-22.5 53.5z" />
<glyph unicode="&#xe0;" horiz-adv-x="864" d="M57 360v295q0 76 29 143.5t80 118t117.5 79t144.5 28.5q76 0 143.5 -28.5t117.5 -79t80 -118t30 -143.5v-577q0 -33 -23.5 -55.5t-54.5 -22.5q-29 0 -50.5 17.5t-25.5 43.5q-94 -70 -217 -69q-76 0 -143.5 28.5t-117.5 79t-80 117.5t-30 143zM213 360q0 -43 17.5 -81.5 t46 -68.5t68.5 -46.5t83 -16.5t82 15.5t67.5 43t46 64.5t19.5 80v305q0 43 -17.5 82t-46 69t-68.5 46t-83 16q-45 0 -84 -16t-68.5 -46t-46 -69t-16.5 -82v-295zM254 1366q0 31 22.5 53.5t57.5 22.5q43 0 65 -37l84 -145q10 -18 10 -41q0 -31 -21.5 -53.5t-55.5 -22.5 q-45 0 -66 37l-84 145q-12 18 -12 41z" />
<glyph unicode="&#xe1;" horiz-adv-x="864" d="M57 360v295q0 76 29 143.5t80 118t117.5 79t144.5 28.5q76 0 143.5 -28.5t117.5 -79t80 -118t30 -143.5v-577q0 -33 -23.5 -55.5t-54.5 -22.5q-29 0 -50.5 17.5t-25.5 43.5q-94 -70 -217 -69q-76 0 -143.5 28.5t-117.5 79t-80 117.5t-30 143zM213 360q0 -43 17.5 -81.5 t46 -68.5t68.5 -46.5t83 -16.5t82 15.5t67.5 43t46 64.5t19.5 80v305q0 43 -17.5 82t-46 69t-68.5 46t-83 16q-45 0 -84 -16t-68.5 -46t-46 -69t-16.5 -82v-295zM363 1219q0 18 12 41l84 145q20 37 66 37q35 0 56 -22.5t21 -53.5q0 -27 -10 -41l-84 -145q-23 -37 -65 -37 q-35 0 -57.5 22.5t-22.5 53.5z" />
<glyph unicode="&#xe2;" horiz-adv-x="864" d="M57 360v295q0 76 29 143.5t80 118t117.5 79t144.5 28.5q76 0 143.5 -28.5t117.5 -79t80 -118t30 -143.5v-577q0 -33 -23.5 -55.5t-54.5 -22.5q-29 0 -50.5 17.5t-25.5 43.5q-94 -70 -217 -69q-76 0 -143.5 28.5t-117.5 79t-80 117.5t-30 143zM213 360q0 -43 17.5 -81.5 t46 -68.5t68.5 -46.5t83 -16.5t82 15.5t67.5 43t46 64.5t19.5 80v305q0 43 -17.5 82t-46 69t-68.5 46t-83 16q-45 0 -84 -16t-68.5 -46t-46 -69t-16.5 -82v-295zM213 1178q0 39 35 63l141 103q16 10 37 10q25 0 45 -15l135 -98q35 -25 35 -63q0 -33 -25.5 -55.5t-56.5 -22.5 q-27 0 -43 14l-90 64l-88 -64q-20 -14 -43 -14q-33 0 -57.5 22.5t-24.5 55.5z" />
<glyph unicode="&#xe3;" horiz-adv-x="864" d="M57 360v295q0 76 29 143.5t80 118t117.5 79t144.5 28.5q76 0 143.5 -28.5t117.5 -79t80 -118t30 -143.5v-577q0 -33 -23.5 -55.5t-54.5 -22.5q-29 0 -50.5 17.5t-25.5 43.5q-94 -70 -217 -69q-76 0 -143.5 28.5t-117.5 79t-80 117.5t-30 143zM213 360q0 -43 17.5 -81.5 t46 -68.5t68.5 -46.5t83 -16.5t82 15.5t67.5 43t46 64.5t19.5 80v305q0 43 -17.5 82t-46 69t-68.5 46t-83 16q-45 0 -84 -16t-68.5 -46t-46 -69t-16.5 -82v-295zM151 1269q0 31 21.5 51.5t51.5 31.5t62.5 16.5t57.5 5.5q29 0 63.5 -12.5t79.5 -12.5q37 0 58.5 4t34 8.5 t19.5 8.5t13 4q31 0 54.5 -22.5t23.5 -55.5q0 -31 -21.5 -50.5t-51 -30.5t-62.5 -16t-55 -5q-51 0 -115 20q-10 2 -31 2q-37 0 -58.5 -3t-33.5 -8t-18 -8t-13 -3q-31 0 -55.5 22t-24.5 53z" />
<glyph unicode="&#xe4;" horiz-adv-x="864" d="M57 360v295q0 76 29 143.5t80 118t117.5 79t144.5 28.5q76 0 143.5 -28.5t117.5 -79t80 -118t30 -143.5v-577q0 -33 -23.5 -55.5t-54.5 -22.5q-29 0 -50.5 17.5t-25.5 43.5q-94 -70 -217 -69q-76 0 -143.5 28.5t-117.5 79t-80 117.5t-30 143zM213 360q0 -43 17.5 -81.5 t46 -68.5t68.5 -46.5t83 -16.5t82 15.5t67.5 43t46 64.5t19.5 80v305q0 43 -17.5 82t-46 69t-68.5 46t-83 16q-45 0 -84 -16t-68.5 -46t-46 -69t-16.5 -82v-295zM219 1274q0 33 23 55.5t55 22.5q31 0 54.5 -22.5t23.5 -55.5t-22.5 -55.5t-55.5 -22.5q-31 0 -54.5 22.5 t-23.5 55.5zM445 1274q0 33 22.5 55.5t55.5 22.5q31 0 54 -22.5t23 -55.5t-22.5 -55.5t-54.5 -22.5q-31 0 -54.5 22.5t-23.5 55.5z" />
<glyph unicode="&#xe5;" horiz-adv-x="864" d="M57 360v295q0 76 29 143.5t80 118t117.5 79t144.5 28.5q76 0 143.5 -28.5t117.5 -79t80 -118t30 -143.5v-577q0 -33 -23.5 -55.5t-54.5 -22.5q-29 0 -50.5 17.5t-25.5 43.5q-94 -70 -217 -69q-76 0 -143.5 28.5t-117.5 79t-80 117.5t-30 143zM213 360q0 -43 17.5 -81.5 t46 -68.5t68.5 -46.5t83 -16.5t82 15.5t67.5 43t46 64.5t19.5 80v305q0 43 -17.5 82t-46 69t-68.5 46t-83 16q-45 0 -84 -16t-68.5 -46t-46 -69t-16.5 -82v-295zM250 1274q0 37 14.5 70.5t39 58t57.5 39t69 14.5q76 0 129.5 -53.5t53.5 -128.5q0 -37 -14.5 -70t-39 -57.5 t-58.5 -39t-71 -14.5t-69.5 14.5t-57 39t-39 57.5t-14.5 70zM359 1274q0 -29 21.5 -50.5t49.5 -21.5q29 0 50.5 21.5t21.5 50.5t-21.5 50t-50.5 21t-50 -21t-21 -50z" />
<glyph unicode="&#xe6;" horiz-adv-x="1716" d="M57 360v295q0 76 29 143.5t80 118t117.5 79t144.5 28.5q76 0 143.5 -28.5t117.5 -79t80 -118t30 -143.5v-577q0 -33 -23.5 -55.5t-54.5 -22.5q-29 0 -50.5 17.5t-25.5 43.5q-94 -70 -217 -69q-76 0 -143.5 28.5t-117.5 79t-80 117.5t-30 143zM213 360q0 -43 17.5 -81.5 t46 -68.5t68.5 -46.5t83 -16.5t82 15.5t67.5 43t46 64.5t19.5 80v305q0 43 -17.5 82t-46 69t-68.5 46t-83 16q-45 0 -84 -16t-68.5 -46t-46 -69t-16.5 -82v-295zM643 360v295q0 76 29 143.5t80 118t117.5 79t144.5 28.5q76 0 143.5 -28.5t117.5 -79t80 -118t30 -143.5v-147 q0 -33 -22.5 -55.5t-55.5 -22.5h-508v-70q0 -43 17.5 -81.5t46 -68.5t68.5 -46.5t83 -16.5q66 0 118 34t79 91l2 7q8 23 27.5 36t43.5 13q33 0 55.5 -23.5t22.5 -54.5q0 -14 -6 -29l-4 -8q-43 -98 -133 -159.5t-205 -61.5q-76 0 -143.5 28.5t-117.5 79t-80 117.5t-30 143z M799 586h430v69q0 43 -17.5 82t-46 69t-68.5 46t-83 16q-45 0 -84 -16t-68.5 -46t-46 -69t-16.5 -82v-69z" />
<glyph unicode="&#xe7;" horiz-adv-x="823" d="M55 360v295q0 78 30 145.5t82 117t120.5 78t146.5 28.5q14 0 56 -5t93.5 -27.5t101.5 -68.5t83 -128q6 -16 6 -29q0 -33 -22.5 -55.5t-55.5 -22.5q-25 0 -44 13.5t-27 35.5q-29 61 -82.5 96t-116.5 35q-45 0 -84 -16t-68.5 -46t-46 -69t-16.5 -82v-295q0 -43 17.5 -81.5 t46 -68.5t68.5 -46.5t83 -16.5q66 0 119 35t80 97q10 23 28.5 36t42.5 13q33 0 55.5 -23.5t22.5 -54.5q0 -14 -6 -29q-41 -90 -98.5 -137t-111.5 -67.5t-92 -22.5t-40 -2q-76 0 -143.5 28.5t-117.5 79t-80 117.5t-30 143zM209 -219q0 33 22.5 47.5t50 20.5t51 11t23.5 20 q0 18 -18 47.5t-18 64.5v35h155v-35q0 -14 8.5 -33.5t18.5 -43t18 -48t8 -49.5q0 -23 -10 -44t-37.5 -36.5t-75 -25t-118.5 -9.5q-33 0 -55.5 22.5t-22.5 55.5z" />
<glyph unicode="&#xe8;" horiz-adv-x="851" d="M57 360v295q0 76 29 143.5t80 118t117.5 79t144.5 28.5q76 0 143.5 -28.5t117.5 -79t80 -118t30 -143.5v-147q0 -33 -22.5 -55.5t-55.5 -22.5h-508v-70q0 -43 17.5 -81.5t46 -68.5t68.5 -46.5t83 -16.5q66 0 118 34t79 91l2 7q8 23 27.5 36t43.5 13q33 0 55.5 -23.5 t22.5 -54.5q0 -14 -6 -29l-4 -8q-43 -98 -133 -159.5t-205 -61.5q-76 0 -143.5 28.5t-117.5 79t-80 117.5t-30 143zM213 586h430v69q0 43 -17.5 82t-46 69t-68.5 46t-83 16q-45 0 -84 -16t-68.5 -46t-46 -69t-16.5 -82v-69zM252 1366q0 31 22.5 53.5t57.5 22.5q43 0 65 -37 l84 -145q10 -18 10 -41q0 -31 -21.5 -53.5t-55.5 -22.5q-45 0 -66 37l-84 145q-12 18 -12 41z" />
<glyph unicode="&#xe9;" horiz-adv-x="851" d="M57 360v295q0 76 29 143.5t80 118t117.5 79t144.5 28.5q76 0 143.5 -28.5t117.5 -79t80 -118t30 -143.5v-147q0 -33 -22.5 -55.5t-55.5 -22.5h-508v-70q0 -43 17.5 -81.5t46 -68.5t68.5 -46.5t83 -16.5q66 0 118 34t79 91l2 7q8 23 27.5 36t43.5 13q33 0 55.5 -23.5 t22.5 -54.5q0 -14 -6 -29l-4 -8q-43 -98 -133 -159.5t-205 -61.5q-76 0 -143.5 28.5t-117.5 79t-80 117.5t-30 143zM213 586h430v69q0 43 -17.5 82t-46 69t-68.5 46t-83 16q-45 0 -84 -16t-68.5 -46t-46 -69t-16.5 -82v-69zM352 1219q0 18 12 41l84 145q20 37 66 37 q35 0 56 -22.5t21 -53.5q0 -27 -10 -41l-84 -145q-23 -37 -65 -37q-35 0 -57.5 22.5t-22.5 53.5z" />
<glyph unicode="&#xea;" horiz-adv-x="851" d="M57 360v295q0 76 29 143.5t80 118t117.5 79t144.5 28.5q76 0 143.5 -28.5t117.5 -79t80 -118t30 -143.5v-147q0 -33 -22.5 -55.5t-55.5 -22.5h-508v-70q0 -43 17.5 -81.5t46 -68.5t68.5 -46.5t83 -16.5q66 0 118 34t79 91l2 7q8 23 27.5 36t43.5 13q33 0 55.5 -23.5 t22.5 -54.5q0 -14 -6 -29l-4 -8q-43 -98 -133 -159.5t-205 -61.5q-76 0 -143.5 28.5t-117.5 79t-80 117.5t-30 143zM213 586h430v69q0 43 -17.5 82t-46 69t-68.5 46t-83 16q-45 0 -84 -16t-68.5 -46t-46 -69t-16.5 -82v-69zM207 1176q0 39 35 63l141 103q16 10 37 10 q25 0 45 -15l135 -98q35 -25 35 -63q0 -33 -25.5 -55.5t-56.5 -22.5q-27 0 -43 14l-90 64l-88 -64q-20 -14 -43 -14q-33 0 -57.5 22.5t-24.5 55.5z" />
<glyph unicode="&#xeb;" horiz-adv-x="851" d="M57 360v295q0 76 29 143.5t80 118t117.5 79t144.5 28.5q76 0 143.5 -28.5t117.5 -79t80 -118t30 -143.5v-147q0 -33 -22.5 -55.5t-55.5 -22.5h-508v-70q0 -43 17.5 -81.5t46 -68.5t68.5 -46.5t83 -16.5q66 0 118 34t79 91l2 7q8 23 27.5 36t43.5 13q33 0 55.5 -23.5 t22.5 -54.5q0 -14 -6 -29l-4 -8q-43 -98 -133 -159.5t-205 -61.5q-76 0 -143.5 28.5t-117.5 79t-80 117.5t-30 143zM213 586h430v69q0 43 -17.5 82t-46 69t-68.5 46t-83 16q-45 0 -84 -16t-68.5 -46t-46 -69t-16.5 -82v-69zM239 1274q0 33 23 55.5t55 22.5q31 0 54.5 -22.5 t23.5 -55.5t-22.5 -55.5t-55.5 -22.5q-31 0 -54.5 22.5t-23.5 55.5zM465 1274q0 33 22.5 55.5t55.5 22.5q31 0 54 -22.5t23 -55.5t-22.5 -55.5t-54.5 -22.5q-31 0 -54.5 22.5t-23.5 55.5z" />
<glyph unicode="&#xec;" horiz-adv-x="331" d="M8 1368q0 31 22.5 53.5t57.5 22.5q43 0 66 -37l84 -145q10 -18 10 -41q0 -31 -21.5 -53.5t-56.5 -22.5q-45 0 -66 37l-84 145q-12 18 -12 41zM111 78v860q0 33 22.5 55.5t54.5 22.5q31 0 54.5 -22.5t23.5 -55.5v-860q0 -33 -22.5 -55.5t-55.5 -22.5q-31 0 -54 22.5 t-23 55.5z" />
<glyph unicode="&#xed;" horiz-adv-x="331" d="M61 78v860q0 33 22.5 55.5t55.5 22.5q31 0 54.5 -22.5t23.5 -55.5v-860q0 -33 -22.5 -55.5t-55.5 -22.5q-31 0 -54.5 22.5t-23.5 55.5zM68 1221q0 18 12 41l84 145q20 37 65 37q35 0 56.5 -22.5t21.5 -53.5q0 -27 -10 -41l-84 -145q-23 -37 -66 -37q-35 0 -57 22.5 t-22 53.5z" />
<glyph unicode="&#xee;" horiz-adv-x="481" d="M27 1174q0 39 34 63l142 102q16 10 37 11q25 0 45 -15l135 -98q35 -25 35 -63q0 -33 -26 -55.5t-56 -22.5q-27 0 -43 14l-90 64l-88 -64q-20 -14 -43 -14q-33 0 -57.5 22.5t-24.5 55.5zM164 78v860q0 33 22.5 55.5t55.5 22.5q31 0 54 -22.5t23 -55.5v-860 q0 -33 -22.5 -55.5t-54.5 -22.5q-31 0 -54.5 22.5t-23.5 55.5z" />
<glyph unicode="&#xef;" horiz-adv-x="417" d="M18 1270q0 33 22.5 55.5t55.5 22.5q31 0 54.5 -22.5t23.5 -55.5t-22.5 -55.5t-55.5 -22.5q-31 0 -54.5 22.5t-23.5 55.5zM129 78v860q0 33 22.5 55.5t55.5 22.5q31 0 54.5 -22.5t23.5 -55.5v-860q0 -33 -22.5 -55.5t-55.5 -22.5q-31 0 -54.5 22.5t-23.5 55.5zM244 1270 q0 33 22.5 55.5t55.5 22.5q31 0 54 -22.5t23 -55.5t-22.5 -55.5t-54.5 -22.5q-31 0 -54.5 22.5t-23.5 55.5z" />
<glyph unicode="&#xf1;" horiz-adv-x="872" d="M66 78v577q0 76 28.5 143.5t79.5 118t117.5 79t144.5 28.5q76 0 143.5 -28.5t118 -79t80 -118t29.5 -143.5v-577q0 -33 -23.5 -55.5t-54.5 -22.5q-33 0 -55.5 22.5t-22.5 55.5v577q0 43 -17.5 82t-46 69t-68.5 46t-83 16q-45 0 -84 -16t-68.5 -46t-46 -69t-16.5 -82v-577 q0 -33 -23.5 -55.5t-54.5 -22.5q-33 0 -55 22.5t-22 55.5zM165 1269q0 31 21.5 51.5t51.5 31.5t62.5 16.5t57.5 5.5q29 0 63.5 -12.5t79.5 -12.5q37 0 58.5 4t34 8.5t19.5 8.5t13 4q31 0 54.5 -22.5t23.5 -55.5q0 -31 -21.5 -50.5t-51 -30.5t-62.5 -16t-55 -5q-51 0 -115 20 q-10 2 -31 2q-37 0 -58.5 -3t-33.5 -8t-18 -8t-13 -3q-31 0 -55.5 22t-24.5 53z" />
<glyph unicode="&#xf2;" d="M57 360v295q0 76 29 143.5t80 118t117.5 79t144.5 28.5q76 0 143.5 -28.5t117.5 -79t80 -118t30 -143.5v-295q0 -76 -29 -143t-80 -117.5t-118.5 -79t-143.5 -28.5t-143.5 28.5t-117.5 79t-80 117.5t-30 143zM213 360q0 -43 17.5 -81.5t46 -68.5t68.5 -46.5t83 -16.5 q45 0 84 16.5t68.5 46.5t46 68.5t16.5 81.5v295q0 43 -17.5 82t-46 69t-68.5 46t-83 16q-45 0 -84 -16t-68.5 -46t-46 -69t-16.5 -82v-295zM250 1366q0 31 22.5 53.5t57.5 22.5q43 0 65 -37l84 -145q10 -18 10 -41q0 -31 -21.5 -53.5t-55.5 -22.5q-45 0 -66 37l-84 145 q-12 18 -12 41z" />
<glyph unicode="&#xf3;" d="M57 360v295q0 76 29 143.5t80 118t117.5 79t144.5 28.5q76 0 143.5 -28.5t117.5 -79t80 -118t30 -143.5v-295q0 -76 -29 -143t-80 -117.5t-118.5 -79t-143.5 -28.5t-143.5 28.5t-117.5 79t-80 117.5t-30 143zM213 360q0 -43 17.5 -81.5t46 -68.5t68.5 -46.5t83 -16.5 q45 0 84 16.5t68.5 46.5t46 68.5t16.5 81.5v295q0 43 -17.5 82t-46 69t-68.5 46t-83 16q-45 0 -84 -16t-68.5 -46t-46 -69t-16.5 -82v-295zM352 1217q0 18 12 41l84 145q20 37 66 37q35 0 56 -22.5t21 -53.5q0 -27 -10 -41l-84 -145q-23 -37 -65 -37q-35 0 -57.5 22.5 t-22.5 53.5z" />
<glyph unicode="&#xf4;" d="M57 360v295q0 76 29 143.5t80 118t117.5 79t144.5 28.5q76 0 143.5 -28.5t117.5 -79t80 -118t30 -143.5v-295q0 -76 -29 -143t-80 -117.5t-118.5 -79t-143.5 -28.5t-143.5 28.5t-117.5 79t-80 117.5t-30 143zM213 360q0 -43 17.5 -81.5t46 -68.5t68.5 -46.5t83 -16.5 q45 0 84 16.5t68.5 46.5t46 68.5t16.5 81.5v295q0 43 -17.5 82t-46 69t-68.5 46t-83 16q-45 0 -84 -16t-68.5 -46t-46 -69t-16.5 -82v-295zM211 1178q0 39 35 63l141 103q16 10 37 10q25 0 45 -15l135 -98q35 -25 35 -63q0 -33 -25.5 -55.5t-56.5 -22.5q-27 0 -43 14l-90 64 l-88 -64q-20 -14 -43 -14q-33 0 -57.5 22.5t-24.5 55.5z" />
<glyph unicode="&#xf5;" d="M57 360v295q0 76 29 143.5t80 118t117.5 79t144.5 28.5q76 0 143.5 -28.5t117.5 -79t80 -118t30 -143.5v-295q0 -76 -29 -143t-80 -117.5t-118.5 -79t-143.5 -28.5t-143.5 28.5t-117.5 79t-80 117.5t-30 143zM213 360q0 -43 17.5 -81.5t46 -68.5t68.5 -46.5t83 -16.5 q45 0 84 16.5t68.5 46.5t46 68.5t16.5 81.5v295q0 43 -17.5 82t-46 69t-68.5 46t-83 16q-45 0 -84 -16t-68.5 -46t-46 -69t-16.5 -82v-295zM147 1267q0 31 21.5 51.5t51.5 31.5t62.5 16.5t57.5 5.5q29 0 63.5 -12.5t79.5 -12.5q37 0 58.5 4t34 8.5t19.5 8.5t13 4 q31 0 54.5 -22.5t23.5 -55.5q0 -31 -21.5 -50.5t-51 -30.5t-62.5 -16t-55 -5q-51 0 -115 20q-10 2 -31 2q-37 0 -58.5 -3t-33.5 -8t-18 -8t-13 -3q-31 0 -55.5 22t-24.5 53z" />
<glyph unicode="&#xf6;" d="M57 360v295q0 76 29 143.5t80 118t117.5 79t144.5 28.5q76 0 143.5 -28.5t117.5 -79t80 -118t30 -143.5v-295q0 -76 -29 -143t-80 -117.5t-118.5 -79t-143.5 -28.5t-143.5 28.5t-117.5 79t-80 117.5t-30 143zM213 360q0 -43 17.5 -81.5t46 -68.5t68.5 -46.5t83 -16.5 q45 0 84 16.5t68.5 46.5t46 68.5t16.5 81.5v295q0 43 -17.5 82t-46 69t-68.5 46t-83 16q-45 0 -84 -16t-68.5 -46t-46 -69t-16.5 -82v-295zM235 1274q0 33 23 55.5t55 22.5q31 0 54.5 -22.5t23.5 -55.5t-22.5 -55.5t-55.5 -22.5q-31 0 -54.5 22.5t-23.5 55.5zM461 1274 q0 33 22.5 55.5t55.5 22.5q31 0 54 -22.5t23 -55.5t-22.5 -55.5t-54.5 -22.5q-31 0 -54.5 22.5t-23.5 55.5z" />
<glyph unicode="&#xf7;" horiz-adv-x="743" d="M12 578q0 31 22.5 54t55.5 23h563q33 0 55.5 -22.5t22.5 -54.5q0 -31 -22.5 -54.5t-55.5 -23.5h-563q-33 0 -55.5 22.5t-22.5 55.5zM293 285q0 33 22.5 55t55.5 22q31 0 54.5 -22.5t23.5 -54.5q0 -33 -23 -55.5t-55 -22.5q-31 0 -54.5 22.5t-23.5 55.5zM293 879 q0 33 22.5 55t55.5 22q31 0 54.5 -22.5t23.5 -54.5q0 -33 -23 -55.5t-55 -22.5q-31 0 -54.5 22.5t-23.5 55.5z" />
<glyph unicode="&#xf8;" d="M57 360v295q0 76 29 143.5t80 118t117.5 79t144.5 28.5q76 0 143.5 -28.5t117.5 -79t80 -118t30 -143.5v-295q0 -76 -29 -143t-80 -117.5t-118.5 -79t-143.5 -28.5t-143.5 28.5t-117.5 79t-80 117.5t-30 143zM213 360q0 -43 17.5 -81.5t46 -68.5t68.5 -46.5t83 -16.5 q45 0 84 16.5t68.5 46.5t46 68.5t16.5 81.5v295q0 43 -17.5 82t-46 69t-68.5 46t-83 16q-45 0 -84 -16t-68.5 -46t-46 -69t-16.5 -82v-295zM-39.8115 -8.50684q0 25.0938 16.4287 44.1299l791.187 1036.62q8.64746 12.1143 22.0498 17.7383q13.4023 5.625 27.2373 5.625 q30.2646 0 49.7197 -20.335q19.4551 -20.334 19.4551 -47.1582q0 -10.3838 -2.59375 -22.0654t-11.2412 -20.334l-792.052 -1036.62q-19.8877 -25.0938 -49.2871 -25.0938q-30.2637 0 -50.584 21.2002q-20.3193 21.1992 -20.3193 46.293z" />
<glyph unicode="&#xf9;" horiz-adv-x="872" d="M66 360v578q0 33 22.5 55.5t54.5 22.5q31 0 54.5 -22.5t23.5 -55.5v-578q0 -43 16.5 -81.5t46 -68.5t68.5 -46.5t84 -16.5q43 0 83 16.5t68.5 46.5t46 68.5t17.5 81.5v578q0 33 22.5 55.5t55.5 22.5q31 0 54.5 -22.5t23.5 -55.5v-578q0 -76 -29.5 -143t-80 -117.5 t-118 -79t-143.5 -28.5q-78 0 -144.5 28.5t-117.5 79t-79.5 117.5t-28.5 143zM271 1366q0 31 22.5 53.5t57.5 22.5q43 0 65 -37l84 -145q10 -18 10 -41q0 -31 -21.5 -53.5t-55.5 -22.5q-45 0 -66 37l-84 145q-12 18 -12 41z" />
<glyph unicode="&#xfa;" horiz-adv-x="872" d="M66 360v578q0 33 22.5 55.5t54.5 22.5q31 0 54.5 -22.5t23.5 -55.5v-578q0 -43 16.5 -81.5t46 -68.5t68.5 -46.5t84 -16.5q43 0 83 16.5t68.5 46.5t46 68.5t17.5 81.5v578q0 33 22.5 55.5t55.5 22.5q31 0 54.5 -22.5t23.5 -55.5v-578q0 -76 -29.5 -143t-80 -117.5 t-118 -79t-143.5 -28.5q-78 0 -144.5 28.5t-117.5 79t-79.5 117.5t-28.5 143zM369 1174q0 18 12 41l84 145q20 37 66 37q35 0 56 -22.5t21 -53.5q0 -27 -10 -41l-84 -145q-23 -37 -65 -37q-35 0 -57.5 22.5t-22.5 53.5z" />
<glyph unicode="&#xfb;" horiz-adv-x="872" d="M66 360v578q0 33 22.5 55.5t54.5 22.5q31 0 54.5 -22.5t23.5 -55.5v-578q0 -43 16.5 -81.5t46 -68.5t68.5 -46.5t84 -16.5q43 0 83 16.5t68.5 46.5t46 68.5t17.5 81.5v578q0 33 22.5 55.5t55.5 22.5q31 0 54.5 -22.5t23.5 -55.5v-578q0 -76 -29.5 -143t-80 -117.5 t-118 -79t-143.5 -28.5q-78 0 -144.5 28.5t-117.5 79t-79.5 117.5t-28.5 143zM219 1176q0 39 35 63l141 103q16 10 37 10q25 0 45 -15l135 -98q35 -25 35 -63q0 -33 -25.5 -55.5t-56.5 -22.5q-27 0 -43 14l-90 64l-88 -64q-20 -14 -43 -14q-33 0 -57.5 22.5t-24.5 55.5z" />
<glyph unicode="&#xfc;" horiz-adv-x="872" d="M66 360v578q0 33 22.5 55.5t54.5 22.5q31 0 54.5 -22.5t23.5 -55.5v-578q0 -43 16.5 -81.5t46 -68.5t68.5 -46.5t84 -16.5q43 0 83 16.5t68.5 46.5t46 68.5t17.5 81.5v578q0 33 22.5 55.5t55.5 22.5q31 0 54.5 -22.5t23.5 -55.5v-578q0 -76 -29.5 -143t-80 -117.5 t-118 -79t-143.5 -28.5q-78 0 -144.5 28.5t-117.5 79t-79.5 117.5t-28.5 143zM229 1268q0 33 23 55.5t55 22.5q31 0 54.5 -22.5t23.5 -55.5t-22.5 -55.5t-55.5 -22.5q-31 0 -54.5 22.5t-23.5 55.5zM455 1268q0 33 22.5 55.5t55.5 22.5q31 0 54 -22.5t23 -55.5t-22.5 -55.5 t-54.5 -22.5q-31 0 -54.5 22.5t-23.5 55.5z" />
<glyph unicode="&#xfd;" horiz-adv-x="831" d="M45 360v578q0 33 22.5 55.5t55.5 22.5q31 0 54.5 -22.5t23.5 -55.5v-578q0 -43 16 -81.5t46 -68.5t69 -46.5t84 -16.5q43 0 83 16.5t68.5 46.5t46 68.5t17.5 81.5v578q0 33 22.5 55.5t55.5 22.5q31 0 54 -22.5t23 -55.5v-578q0 -66 -22.5 -126t-61 -107t-93 -81 t-115.5 -46v-283q0 -33 -22.5 -55t-55.5 -22q-31 0 -54.5 22.5t-23.5 54.5v283q-63 12 -116.5 46t-92.5 81t-61.5 107t-22.5 126zM342 1223q0 18 12 41l84 145q20 37 66 37q35 0 56 -22.5t21 -53.5q0 -27 -10 -41l-84 -145q-23 -37 -65 -37q-35 0 -57.5 22.5t-22.5 53.5z " />
<glyph unicode="&#xff;" horiz-adv-x="831" d="M45 360v578q0 33 22.5 55.5t55.5 22.5q31 0 54.5 -22.5t23.5 -55.5v-578q0 -43 16 -81.5t46 -68.5t69 -46.5t84 -16.5q43 0 83 16.5t68.5 46.5t46 68.5t17.5 81.5v578q0 33 22.5 55.5t55.5 22.5q31 0 54 -22.5t23 -55.5v-578q0 -66 -22.5 -126t-61 -107t-93 -81 t-115.5 -46v-283q0 -33 -22.5 -55t-55.5 -22q-31 0 -54.5 22.5t-23.5 54.5v283q-63 12 -116.5 46t-92.5 81t-61.5 107t-22.5 126zM223 1274q0 33 23 55.5t55 22.5q31 0 54.5 -22.5t23.5 -55.5t-22.5 -55.5t-55.5 -22.5q-31 0 -54.5 22.5t-23.5 55.5zM449 1274 q0 33 22.5 55.5t55.5 22.5q31 0 54 -22.5t23 -55.5t-22.5 -55.5t-54.5 -22.5q-31 0 -54.5 22.5t-23.5 55.5z" />
<glyph unicode="&#x152;" horiz-adv-x="2172" d="M346 442v467q0 100 39 188.5t104.5 155t154.5 104.5t192 38q100 0 188 -38t154.5 -104.5t105.5 -154.5t39 -189v-467q0 -100 -39 -188t-104.5 -154.5t-154.5 -104.5t-189 -38t-189.5 38t-156 104.5t-105.5 154.5t-39 188zM502 442q0 -68 26.5 -128t71.5 -104t106.5 -70.5 t129.5 -26.5q70 0 130 26.5t105 70.5t71 104.5t26 127.5v467q0 68 -27 128.5t-72 104.5t-105.5 70.5t-127.5 26.5q-70 0 -131.5 -26.5t-106.5 -70.5t-70.5 -104.5t-25.5 -128.5v-467zM1166 78v1196q0 33 22.5 55.5t55.5 22.5h821q33 0 55.5 -22.5t22.5 -55.5 q0 -31 -22.5 -54.5t-55.5 -23.5h-744v-463h242q33 0 55.5 -22.5t22.5 -55.5q0 -31 -22.5 -54t-55.5 -23h-242v-422h744q33 0 55.5 -22.5t22.5 -55.5q0 -31 -22.5 -54.5t-55.5 -23.5h-815h-6q-31 0 -54.5 22.5t-23.5 55.5z" />
<glyph unicode="&#x153;" horiz-adv-x="1710" d="M329 360v295q0 76 29 143.5t80 118t117.5 79t144.5 28.5q76 0 143.5 -28.5t117.5 -79t80 -118t30 -143.5v-295q0 -76 -29 -143t-80 -117.5t-118.5 -79t-143.5 -28.5t-143.5 28.5t-117.5 79t-80 117.5t-30 143zM485 360q0 -43 17.5 -81.5t46 -68.5t68.5 -46.5t83 -16.5 q45 0 84 16.5t68.5 46.5t46 68.5t16.5 81.5v295q0 43 -17.5 82t-46 69t-68.5 46t-83 16q-45 0 -84 -16t-68.5 -46t-46 -69t-16.5 -82v-295zM915 360v295q0 76 29 143.5t80 118t117.5 79t144.5 28.5q76 0 143.5 -28.5t117.5 -79t80 -118t30 -143.5v-147q0 -33 -22.5 -55.5 t-55.5 -22.5h-508v-70q0 -43 17.5 -81.5t46 -68.5t68.5 -46.5t83 -16.5q66 0 118 34t79 91l2 7q8 23 27.5 36t43.5 13q33 0 55.5 -23.5t22.5 -54.5q0 -14 -6 -29l-4 -8q-43 -98 -133 -159.5t-205 -61.5q-76 0 -143.5 28.5t-117.5 79t-80 117.5t-30 143zM1071 586h430v69 q0 43 -17.5 82t-46 69t-68.5 46t-83 16q-45 0 -84 -16t-68.5 -46t-46 -69t-16.5 -82v-69z" />
<glyph unicode="&#x178;" horiz-adv-x="1058" d="M41 874v400q0 33 22.5 55.5t55.5 22.5q31 0 54.5 -22.5t23.5 -55.5v-400q0 -68 26.5 -128t71.5 -104t106.5 -70.5t128.5 -26.5q70 0 130.5 26.5t105.5 70.5t70.5 104.5t25.5 127.5v400q0 33 22.5 55.5t55.5 22.5q31 0 54.5 -22.5t23.5 -55.5v-400q0 -90 -32 -170.5 t-87 -144t-130 -106.5t-161 -58v-317q0 -33 -22.5 -55.5t-55.5 -22.5q-31 0 -54 22.5t-23 55.5v317q-86 14 -162 57.5t-131.5 107t-87 144t-31.5 170.5zM335 1630q0 33 23 55.5t55 22.5q31 0 54.5 -22.5t23.5 -55.5t-22.5 -55.5t-55.5 -22.5q-31 0 -54.5 22.5t-23.5 55.5z M561 1630q0 33 22.5 55.5t55.5 22.5q31 0 54 -22.5t23 -55.5t-22.5 -55.5t-54.5 -22.5q-31 0 -54.5 22.5t-23.5 55.5z" />
<glyph unicode="&#x2c6;" horiz-adv-x="518" d="M45 1182q0 39 35 63l141 103q16 10 37 10q25 0 45 -15l135 -98q35 -25 35 -63q0 -33 -25.5 -55.5t-56.5 -22.5q-27 0 -43 14l-90 64l-88 -64q-20 -14 -43 -14q-33 0 -57.5 22.5t-24.5 55.5z" />
<glyph unicode="&#x2da;" horiz-adv-x="464" d="M51 1266q0 37 14.5 70.5t39 58t57.5 39t69 14.5q76 0 129.5 -53.5t53.5 -128.5q0 -37 -14.5 -70t-39 -57.5t-58.5 -39t-71 -14.5t-69.5 14.5t-57 39t-39 57.5t-14.5 70zM160 1266q0 -29 21.5 -50.5t49.5 -21.5q29 0 50.5 21.5t21.5 50.5t-21.5 50t-50.5 21t-50 -21 t-21 -50z" />
<glyph unicode="&#x2dc;" horiz-adv-x="663" d="M63 1249q0 31 21.5 51.5t51.5 31.5t62.5 16.5t57.5 5.5q29 0 63.5 -12.5t79.5 -12.5q37 0 58.5 4t34 8.5t19.5 8.5t13 4q31 0 54.5 -22.5t23.5 -55.5q0 -31 -21.5 -50.5t-51 -30.5t-62.5 -16t-55 -5q-51 0 -115 20q-10 2 -31 2q-37 0 -58.5 -3t-33.5 -8t-18 -8t-13 -3 q-31 0 -55.5 22t-24.5 53z" />
<glyph unicode="&#x2000;" horiz-adv-x="901" />
<glyph unicode="&#x2001;" horiz-adv-x="1804" />
<glyph unicode="&#x2002;" horiz-adv-x="901" />
<glyph unicode="&#x2003;" horiz-adv-x="1804" />
<glyph unicode="&#x2004;" horiz-adv-x="600" />
<glyph unicode="&#x2005;" horiz-adv-x="450" />
<glyph unicode="&#x2006;" horiz-adv-x="299" />
<glyph unicode="&#x2007;" horiz-adv-x="299" />
<glyph unicode="&#x2008;" horiz-adv-x="225" />
<glyph unicode="&#x2009;" horiz-adv-x="360" />
<glyph unicode="&#x200a;" horiz-adv-x="98" />
<glyph unicode="&#x2010;" d="M70 578q0 31 22.5 54t54.5 23h564q33 0 55 -22.5t22 -54.5q0 -31 -22.5 -54.5t-54.5 -23.5h-564q-33 0 -55 22.5t-22 55.5z" />
<glyph unicode="&#x2011;" d="M70 578q0 31 22.5 54t54.5 23h564q33 0 55 -22.5t22 -54.5q0 -31 -22.5 -54.5t-54.5 -23.5h-564q-33 0 -55 22.5t-22 55.5z" />
<glyph unicode="&#x2012;" d="M70 578q0 31 22.5 54t54.5 23h564q33 0 55 -22.5t22 -54.5q0 -31 -22.5 -54.5t-54.5 -23.5h-564q-33 0 -55 22.5t-22 55.5z" />
<glyph unicode="&#x2013;" horiz-adv-x="940" d="M70 578q0 31 22.5 54t54.5 23h646q33 0 55 -22.5t22 -54.5q0 -31 -22.5 -54.5t-54.5 -23.5h-646q-33 0 -55 22.5t-22 55.5z" />
<glyph unicode="&#x2014;" horiz-adv-x="1185" d="M70 578q0 31 22.5 54t54.5 23h891q33 0 55.5 -22.5t22.5 -54.5q0 -31 -22.5 -54.5t-55.5 -23.5h-891q-33 0 -55 22.5t-22 55.5z" />
<glyph unicode="&#x2018;" horiz-adv-x="331" d="M68 1137v161q0 29 23.5 53.5t51.5 24.5h82q33 0 55.5 -23.5t22.5 -54.5q0 -33 -22.5 -55t-55.5 -22h-2v-84q0 -33 -23.5 -55.5t-54.5 -22.5q-33 0 -55 22.5t-22 55.5z" />
<glyph unicode="&#x2019;" horiz-adv-x="335" d="M31 1137q0 33 22.5 55t55.5 22h2v84q0 33 23.5 55.5t53.5 22.5q33 0 55.5 -22.5t22.5 -55.5v-161q0 -29 -23.5 -53.5t-52.5 -24.5h-81q-33 0 -55.5 23.5t-22.5 54.5z" />
<glyph unicode="&#x201a;" horiz-adv-x="335" d="M31 -92q0 33 22.5 55.5t55.5 22.5h2v84q0 33 23.5 55t53.5 22q33 0 55.5 -22.5t22.5 -54.5v-162q0 -29 -23.5 -53.5t-52.5 -24.5h-81q-33 0 -55.5 23.5t-22.5 54.5z" />
<glyph unicode="&#x201c;" horiz-adv-x="602" d="M72 1137v161q0 29 23.5 53.5t51.5 24.5h82q33 0 55.5 -23.5t22.5 -54.5q0 -33 -22.5 -55t-55.5 -22h-2v-84q0 -33 -23.5 -55.5t-53.5 -22.5q-33 0 -55.5 22.5t-22.5 55.5zM317 1137v161q0 29 24 53.5t52 24.5h82q33 0 55.5 -23.5t22.5 -54.5q0 -33 -22.5 -55t-55.5 -22 h-2v-84q0 -33 -23.5 -55.5t-54.5 -22.5q-33 0 -55.5 22.5t-22.5 55.5z" />
<glyph unicode="&#x201d;" horiz-adv-x="604" d="M51 1137q0 33 22.5 55t55.5 22h2v84q0 33 23.5 55.5t54.5 22.5q33 0 55.5 -22.5t22.5 -55.5v-161q0 -29 -23.5 -53.5t-52.5 -24.5h-82q-33 0 -55.5 23.5t-22.5 54.5zM297 1137q0 33 22.5 55t55.5 22h2v84q0 33 23.5 55.5t54.5 22.5q33 0 55 -22.5t22 -55.5v-161 q0 -29 -23.5 -53.5t-51.5 -24.5h-82q-33 0 -55.5 23.5t-22.5 54.5z" />
<glyph unicode="&#x201e;" horiz-adv-x="522" d="M70 70q0 33 22.5 55t54.5 22q31 0 54.5 -22.5t23.5 -54.5v-162q0 -33 -22.5 -55.5t-55.5 -22.5q-31 0 -54 22.5t-23 55.5v162zM295 70q0 33 22.5 55t55.5 22q31 0 54.5 -22.5t23.5 -54.5v-162q0 -33 -22.5 -55.5t-55.5 -22.5q-31 0 -54.5 22.5t-23.5 55.5v162z" />
<glyph unicode="&#x2022;" horiz-adv-x="405" d="M51 655q0 63 44 107.5t108 44.5q63 0 107 -44t44 -108q0 -63 -44 -107t-107 -44t-107.5 44t-44.5 107z" />
<glyph unicode="&#x2026;" horiz-adv-x="817" d="M68 78q0 33 22.5 55.5t54.5 22.5q31 0 54.5 -22.5t23.5 -55.5t-22.5 -55.5t-55.5 -22.5q-31 0 -54 22.5t-23 55.5zM330 78q0 33 22.5 55.5t55.5 22.5q31 0 54 -22.5t23 -55.5t-22.5 -55.5t-54.5 -22.5q-31 0 -54.5 22.5t-23.5 55.5zM592 78q0 33 22.5 55.5t55.5 22.5 q31 0 54.5 -22.5t23.5 -55.5t-23 -55.5t-55 -22.5q-31 0 -54.5 22.5t-23.5 55.5z" />
<glyph unicode="&#x202f;" horiz-adv-x="360" />
<glyph unicode="&#x2039;" horiz-adv-x="524" d="M12 498q0 29 19 53l286 334q10 14 25.5 20t32.5 6q35 0 57.5 -23.5t22.5 -53.5q0 -12 -3 -25.5t-14 -24.5l-250 -284l250 -283q16 -18 17 -51q0 -29 -22.5 -53.5t-57.5 -24.5t-58 29l-288 336q-17 22 -17 45z" />
<glyph unicode="&#x203a;" horiz-adv-x="522" d="M68 166q0 29 18 51l250 283l-250 284q-18 20 -18 50q0 31 23.5 54t58.5 23q16 0 31.5 -6t25.5 -20l287 -334q18 -25 18 -53q0 -23 -16 -45l-289 -336q-23 -29 -57 -29q-35 0 -58.5 24.5t-23.5 53.5z" />
<glyph unicode="&#x2044;" horiz-adv-x="1083" d="M6 78q0 29 19 51l915 1198q10 14 25.5 20.5t31.5 6.5q35 0 57.5 -23.5t22.5 -54.5q0 -12 -3 -25.5t-13 -23.5l-916 -1198q-23 -29 -57 -29q-35 0 -58.5 24.5t-23.5 53.5z" />
<glyph unicode="&#x205f;" horiz-adv-x="450" />
<glyph unicode="&#x20ac;" horiz-adv-x="913" d="M41 547q0 31 22.5 54.5t55.5 23.5h14v55h-14q-33 0 -55.5 22.5t-22.5 55.5q0 31 22.5 54.5t55.5 23.5h14v118q0 84 33 158t88 129t130 87t159 32q43 0 97 -13.5t102.5 -37t80 -54t31.5 -65.5q0 -33 -22.5 -55.5t-55.5 -22.5q-39 0 -63 31q-72 66 -170 65 q-53 0 -99.5 -20.5t-81 -54t-54 -80.5t-19.5 -99v-118h393q33 0 55.5 -22.5t22.5 -55.5q0 -31 -22.5 -54.5t-55.5 -23.5h-393v-55h393q33 0 55.5 -22.5t22.5 -55.5q0 -31 -22.5 -54.5t-55.5 -23.5h-393v-70q0 -53 20.5 -98t54 -80t79.5 -54.5t100 -19.5q53 0 98 18.5 t80 53.5q23 23 55 23q33 0 55.5 -22.5t22.5 -55.5q0 -39 -34 -71t-82 -54.5t-101 -34.5t-94 -12q-84 0 -159 32.5t-130 88t-88 129t-33 157.5v70h-14q-33 0 -55.5 22.5t-22.5 55.5z" />
<glyph unicode="&#x2122;" horiz-adv-x="1447" d="M51 1315q0 16 12.5 28.5t28.5 12.5h424q16 0 28.5 -12.5t12.5 -28.5t-12.5 -27.5t-28.5 -11.5h-172v-580q0 -16 -12.5 -27.5t-28.5 -11.5t-28.5 11.5t-12.5 27.5v580h-170q-16 0 -28.5 11.5t-12.5 27.5zM520 696v412q0 51 18.5 97t50.5 81t76 54.5t97 19.5 q63 0 109.5 -24.5t76.5 -65.5q35 41 80 65.5t107 24.5q51 0 96 -19.5t76.5 -54.5t50 -81t18.5 -97v-412q0 -16 -12 -27.5t-29 -11.5q-16 0 -27.5 11.5t-11.5 27.5v412q0 72 -45 122t-116 50q-72 0 -109 -50t-37 -122v-412q0 -16 -12 -27.5t-29 -11.5q-16 0 -27.5 11.5 t-11.5 27.5v414q0 70 -39 120t-108 50q-72 0 -116 -50t-44 -122v-412q0 -16 -12 -27.5t-29 -11.5q-16 0 -28.5 11.5t-12.5 27.5z" />
<glyph unicode="&#xe000;" horiz-adv-x="1014" d="M0 1015h1015v-1015h-1015v1015z" />
<glyph unicode="&#xfb01;" horiz-adv-x="1091" d="M861 78v860q0 33 22.5 55.5t54.5 22.5q31 0 54.5 -22.5t23.5 -55.5v-860q0 -33 -22.5 -55.5t-55.5 -22.5q-31 0 -54 22.5t-23 55.5zM861 1239v59q0 33 22.5 55.5t54.5 22.5q31 0 54.5 -22.5t23.5 -55.5v-59q0 -33 -22.5 -55.5t-55.5 -22.5q-31 0 -54 22.5t-23 55.5z M68 78v930q0 78 29.5 145.5t80.5 116.5t120 77.5t146 28.5q14 0 54.5 -5t91.5 -27.5t102 -68.5t88 -128q6 -16 6 -29q0 -33 -22.5 -55.5t-54.5 -22.5q-51 0 -72 50q-27 61 -80 96t-119 35q-43 0 -83 -16.5t-68.5 -46.5t-46 -68.5t-17.5 -81.5v-422h221q33 0 55.5 -23.5 t22.5 -54.5q0 -33 -22.5 -55.5t-55.5 -22.5h-221v-352q0 -33 -23.5 -55.5t-54.5 -22.5q-33 0 -55 22.5t-22 55.5z" />
<glyph unicode="&#xfb02;" horiz-adv-x="1099" d="M865 78v1196q0 33 22.5 55.5t55.5 22.5q31 0 54 -22.5t23 -55.5v-1196q0 -33 -22.5 -55.5t-54.5 -22.5q-31 0 -54.5 22.5t-23.5 55.5zM68 78v930q0 78 29.5 145.5t80.5 116.5t120 77.5t146 28.5q14 0 54.5 -5t91.5 -27.5t102 -68.5t88 -128q6 -16 6 -29 q0 -33 -22.5 -55.5t-54.5 -22.5q-51 0 -72 50q-27 61 -80 96t-119 35q-43 0 -83 -16.5t-68.5 -46.5t-46 -68.5t-17.5 -81.5v-422h221q33 0 55.5 -23.5t22.5 -54.5q0 -33 -22.5 -55.5t-55.5 -22.5h-221v-352q0 -33 -23.5 -55.5t-54.5 -22.5q-33 0 -55 22.5t-22 55.5z" />
<glyph unicode="&#xfb03;" horiz-adv-x="1882" d="M1651 78v860q0 33 22.5 55.5t54.5 22.5q31 0 54.5 -22.5t23.5 -55.5v-860q0 -33 -22.5 -55.5t-55.5 -22.5q-31 0 -54 22.5t-23 55.5zM1651 1239v59q0 33 22.5 55.5t54.5 22.5q31 0 54.5 -22.5t23.5 -55.5v-59q0 -33 -22.5 -55.5t-55.5 -22.5q-31 0 -54 22.5t-23 55.5z M859 78v930q0 78 29.5 145.5t80.5 116.5t120 77.5t146 28.5q14 0 54.5 -5t91.5 -27.5t102 -68.5t88 -128q6 -16 6 -29q0 -33 -22.5 -55.5t-54.5 -22.5q-51 0 -72 50q-27 61 -80 96t-119 35q-43 0 -83 -16.5t-68.5 -46.5t-46 -68.5t-17.5 -81.5v-422h221q33 0 55.5 -23.5 t22.5 -54.5q0 -33 -22.5 -55.5t-55.5 -22.5h-221v-352q0 -33 -23.5 -55.5t-54.5 -22.5q-33 0 -55 22.5t-22 55.5zM68 78v930q0 78 29.5 145.5t80.5 116.5t120 77.5t146 28.5q14 0 54.5 -5t91.5 -27.5t102 -68.5t88 -128q6 -16 6 -29q0 -33 -22.5 -55.5t-54.5 -22.5 q-51 0 -72 50q-27 61 -80 96t-119 35q-43 0 -83 -16.5t-68.5 -46.5t-46 -68.5t-17.5 -81.5v-422h221q33 0 55.5 -23.5t22.5 -54.5q0 -33 -22.5 -55.5t-55.5 -22.5h-221v-352q0 -33 -23.5 -55.5t-54.5 -22.5q-33 0 -55 22.5t-22 55.5z" />
<glyph unicode="&#xfb04;" horiz-adv-x="1890" d="M1655 78v1196q0 33 22.5 55.5t55.5 22.5q31 0 54 -22.5t23 -55.5v-1196q0 -33 -22.5 -55.5t-54.5 -22.5q-31 0 -54.5 22.5t-23.5 55.5zM859 78v930q0 78 29.5 145.5t80.5 116.5t120 77.5t146 28.5q14 0 54.5 -5t91.5 -27.5t102 -68.5t88 -128q6 -16 6 -29 q0 -33 -22.5 -55.5t-54.5 -22.5q-51 0 -72 50q-27 61 -80 96t-119 35q-43 0 -83 -16.5t-68.5 -46.5t-46 -68.5t-17.5 -81.5v-422h221q33 0 55.5 -23.5t22.5 -54.5q0 -33 -22.5 -55.5t-55.5 -22.5h-221v-352q0 -33 -23.5 -55.5t-54.5 -22.5q-33 0 -55 22.5t-22 55.5zM68 78 v930q0 78 29.5 145.5t80.5 116.5t120 77.5t146 28.5q14 0 54.5 -5t91.5 -27.5t102 -68.5t88 -128q6 -16 6 -29q0 -33 -22.5 -55.5t-54.5 -22.5q-51 0 -72 50q-27 61 -80 96t-119 35q-43 0 -83 -16.5t-68.5 -46.5t-46 -68.5t-17.5 -81.5v-422h221q33 0 55.5 -23.5t22.5 -54.5 q0 -33 -22.5 -55.5t-55.5 -22.5h-221v-352q0 -33 -23.5 -55.5t-54.5 -22.5q-33 0 -55 22.5t-22 55.5z" />
</font>
</defs>
</svg>
